<svg data-name="Layer 1" xmlns="http://www.w3.org/2000/svg" viewBox="0 0 500 500">
  <defs>
    <linearGradient id="a" x1="-258.73" y1="930.38" x2="-242.72" y2="914.37" gradientTransform="translate(265.92 -651.59)" gradientUnits="userSpaceOnUse">
      <stop offset=".11" stop-color="#3d154f"/>
      <stop offset=".41" stop-color="#fd1d1d"/>
      <stop offset=".66" stop-color="#fbb045"/>
    </linearGradient>
    <linearGradient id="b" x1="42.71" y1="1635.05" x2="40.65" y2="1630.73" gradientTransform="scale(1 -1)rotate(45 2157.581 786.91)" gradientUnits="userSpaceOnUse">
      <stop offset="0" stop-color="#ff1639"/>
      <stop offset="1" stop-color="#ff1639" stop-opacity="0"/>
    </linearGradient>
  </defs>
  <g>
    <animateTransform attributeName="transform" attributeType="XML" type="rotate" from="0 250 250" to="-360 250 250" dur="80s" repeatCount="indefinite" begin="1s" />
    <circle cx="251.51" cy="250" r="233.3" style="fill:none;stroke:#6c4d9e;stroke-miterlimit:10;stroke-width:.6px"/>
    <rect x="233.79" y="8.7" width="55.79" height="16" rx="1.6" ry="1.6" style="fill:#1c222b;stroke:#bbbdbf;stroke-miterlimit:10;stroke-width:.32px"/>
    <rect x="213.43" y="8.7" width="18.3" height="16" rx="1.96" ry="1.96" style="stroke-width:0"/>
    <path d="M240.82 13.94h3.21v.64h-2.43v1.98h2.25v.64h-2.25v2.69h-.77v-5.95Zm4.31.08c.39-.08.95-.13 1.48-.13.82 0 1.35.16 1.72.49.29.26.47.67.47 1.13 0 .78-.5 1.3-1.12 1.52v.02c.45.16.73.59.87 1.21.2.83.34 1.4.46 1.63h-.8c-.09-.17-.23-.68-.39-1.43-.18-.82-.5-1.13-1.19-1.15h-.73v2.58h-.77zm.77 2.71h.79c.82 0 1.34-.45 1.34-1.13 0-.77-.56-1.11-1.37-1.11-.37 0-.63.03-.76.07zm9.1.12c0 2.04-1.24 3.13-2.76 3.13s-2.68-1.22-2.68-3.02 1.17-3.13 2.76-3.13 2.68 1.25 2.68 3.01Zm-4.62.09c0 1.27.69 2.41 1.9 2.41s1.91-1.12 1.91-2.47c0-1.19-.62-2.42-1.9-2.42s-1.91 1.18-1.91 2.48m5.61 2.95v-5.95h.85l1.91 3.01c.43.7.78 1.32 1.06 1.94h.02c-.07-.8-.08-1.53-.08-2.45v-2.5h.72v5.95h-.78l-1.89-3.02c-.41-.67-.81-1.35-1.11-1.99h-.03c.05.76.06 1.48.06 2.47v2.55H256Zm6.96-5.3h-1.81v-.65h4.41v.65h-1.82v5.3h-.77v-5.3Zm8.21 2.51h-2.31v2.15h2.58v.64h-3.35v-5.95h3.22v.64h-2.44v1.89h2.31v.64Zm1.26 2.79v-5.95h.85l1.91 3.01c.43.7.78 1.32 1.06 1.94h.02c-.07-.8-.08-1.53-.08-2.45v-2.5h.72v5.95h-.78l-1.89-3.02c-.41-.67-.81-1.35-1.11-1.99h-.03c.05.76.06 1.48.06 2.47v2.55h-.72Zm5.82-5.87c.47-.08 1.03-.13 1.64-.13 1.1 0 1.89.26 2.41.75.53.48.84 1.17.84 2.13s-.3 1.77-.86 2.32-1.48.86-2.64.86c-.55 0-1.01-.02-1.4-.07v-5.86Zm.77 5.27c.19.03.48.04.77.04 1.65 0 2.54-.91 2.54-2.52 0-1.41-.79-2.29-2.41-2.29-.4 0-.7.04-.9.08v4.7Z" style="fill:#fff;stroke-width:0"/>
    <path d="M219.27 13.01c-.54.04-.96.44-1 .97-.05.59-.1 1.48-.1 2.72s.05 2.13.1 2.72c.05.54.47.94 1 .97.68.05 1.76.1 3.31.1s2.64-.05 3.31-.1c.54-.04.96-.44 1-.97.05-.59.1-1.48.1-2.72s-.05-2.13-.1-2.72c-.05-.54-.47-.94-1-.97-.68-.05-1.76-.1-3.31-.1s-2.64.05-3.31.1m1.42 6h3.79" style="fill:none;stroke:#fff;stroke-linecap:round;stroke-linejoin:round;stroke-width:.63px"/>
    <rect x="398.46" y="84.77" width="49.34" height="16" rx="1.6" ry="1.6" transform="rotate(45 423.122 92.773)" style="fill:#1c222b;stroke:#bbbdbf;stroke-miterlimit:10;stroke-width:.3px"/>
    <path d="M412.7 78.4c.29.19.71.53 1.08.9.55.55.8.99.85 1.46.05.38-.06.77-.39 1.1-.41.41-1.04.49-1.63.21l-.02.02c.3.5.44 1.3-.19 1.92-.36.36-.78.49-1.2.48-.56-.02-1.16-.37-1.85-1.06-.38-.38-.64-.69-.8-.89l4.14-4.14Zm-1.18 2.27.5.5c.57.57 1.21.6 1.62.19.49-.49.32-1.06-.23-1.61-.25-.25-.41-.38-.52-.45l-1.36 1.36Zm-2.01 2.01c.09.13.23.29.43.49.56.56 1.29.88 1.9.26.57-.57.32-1.31-.28-1.9l-.45-.45zm4.42 2.62-1.76.89-.56-.56 5.64-2.78.65.65-2.77 5.65-.58-.58.87-1.77-1.49-1.49Zm1.81.96.79-1.63c.18-.37.37-.68.55-.98h-.01c-.31.17-.63.36-.97.54l-1.63.8zm2.99 6.22c-.3-.1-.8-.4-1.31-.91-1.19-1.19-1.33-2.83.06-4.21s3.1-1.32 4.41-.01c.52.52.75.97.81 1.18l-.58.31c-.11-.3-.32-.67-.67-1.02-.99-.99-2.27-1.01-3.38.09-1.03 1.03-1.09 2.28-.07 3.3.33.33.74.6 1.06.72l-.32.54Zm4.76-3.4.54.54-2.03 2.03.02.02c.27-.05.54-.08.78-.12l2.87-.3.67.67-3.31.27-.78 4.06-.64-.64.68-3.45-.87.06-1.6 1.6-.54-.54 4.21-4.21Zm4.65 9.13-1.63-1.63-1.52 1.52 1.82 1.82-.45.45-2.37-2.37 4.21-4.21 2.28 2.28-.45.45-1.73-1.73-1.33 1.33 1.63 1.63-.45.45Zm-1.07 2.87 4.21-4.21.6.6-.78 3.48c-.19.8-.38 1.49-.62 2.12h.02c.51-.6 1.02-1.13 1.67-1.78l1.76-1.76.51.51-4.21 4.21-.55-.55.8-3.47c.18-.76.38-1.52.63-2.19h-.02c-.5.55-1 1.07-1.7 1.76l-1.8 1.8-.51-.51Zm8.26-.04c.39.28.82.64 1.25 1.07.78.78 1.15 1.52 1.18 2.23.04.72-.23 1.42-.91 2.1s-1.46 1.03-2.24 1.03c-.79 0-1.66-.44-2.47-1.26-.39-.39-.7-.73-.94-1.04l4.14-4.14Zm-3.18 4.27c.12.16.31.36.52.57 1.16 1.17 2.44 1.15 3.58 0 1-.99 1.07-2.18-.08-3.32-.28-.28-.52-.47-.69-.58z" style="fill:#fff;stroke-width:0"/>
    <rect x="388.61" y="59.4" width="18.3" height="16" rx="1.96" ry="1.96" transform="rotate(45 397.763 67.399)" style="fill:#6c4d9e;stroke-width:0"/>
    <path d="M402.62 68.79c-.77.77-2.79-.01-4.51-1.74s-2.5-3.75-1.74-4.51m6.25 6.25c.77-.77-.01-2.79-1.74-4.51s-3.75-2.5-4.51-1.74m6.25 6.25-1.74 1.74m-4.51-7.98-1.74 1.74m6.25 6.25c-.77.77-2.79-.01-4.51-1.74s-2.5-3.75-1.74-4.51m6.25 6.25-1.74 1.74c-.77.77-2.79-.01-4.51-1.74s-2.5-3.75-1.74-4.51l1.74-1.74" style="fill:none;stroke:#fff;stroke-linecap:round;stroke-linejoin:round;stroke-width:.57px"/>
    <rect x="463.49" y="252.18" width="42.64" height="16" rx="1.6" ry="1.6" transform="rotate(90 484.81 260.18)" style="fill:#1c222b;stroke:#bbbdbf;stroke-miterlimit:10;stroke-width:.28px"/>
    <path d="M487.49 246.08c.08.47.13 1.03.13 1.64 0 1.1-.26 1.89-.75 2.41-.48.53-1.17.84-2.13.84s-1.77-.3-2.32-.86-.86-1.48-.86-2.64c0-.55.02-1.01.07-1.4h5.86Zm-5.27.77c-.03.19-.04.48-.04.77 0 1.65.91 2.54 2.52 2.54 1.41 0 2.29-.79 2.29-2.41 0-.4-.04-.7-.08-.9h-4.7Zm2.19 8.2v-2.31h-2.15v2.58h-.64v-3.35h5.95v3.22h-.64v-2.44h-1.89v2.31h-.64Zm3.09 1.26c.07.37.12.86.12 1.48 0 .75-.17 1.31-.49 1.67-.29.32-.72.52-1.25.52s-.97-.16-1.27-.46c-.44-.41-.65-1.07-.65-1.82 0-.23 0-.44.06-.62h-2.39v-.77h5.88Zm-2.87.77c-.05.17-.07.39-.07.64 0 .93.46 1.5 1.27 1.5s1.17-.56 1.17-1.41c0-.34-.03-.59-.06-.73h-2.32Zm2.95 3.93v.77h-5.3v2.54h-.65V261h5.95Zm-2.92 8.92c-2.04 0-3.13-1.24-3.13-2.76s1.22-2.68 3.02-2.68 3.13 1.17 3.13 2.76-1.25 2.68-3.01 2.68Zm-.09-4.62c-1.27 0-2.41.69-2.41 1.9s1.12 1.91 2.47 1.91c1.19 0 2.42-.62 2.42-1.9s-1.18-1.91-2.48-1.91m-2.95 6.7h2.52l3.43-1.89v.88l-1.64.84c-.45.23-.81.41-1.23.59v.02c.39.16.78.37 1.23.6l1.64.86v.87l-3.42-1.99h-2.54v-.77Z" style="fill:#fff;stroke-width:0"/>
    <rect x="475.66" y="219.65" width="18.3" height="16" rx="1.96" ry="1.96" transform="rotate(90 484.81 227.65)" style="fill:#d5424e;stroke-width:0"/>
    <path d="M490.34 232.85v-3.78c0-.19-.16-.35-.35-.35s-.35.16-.35.35v2.96l-3.12-3.06a.357.357 0 0 0-.49 0c-.13.14-.13.36 0 .49l3.1 3.04h-2.93c-.19 0-.35.16-.35.35s.16.35.35.35h3.78c.19 0 .35-.16.35-.35m-3.01-7.44-1.79-3.12a.34.34 0 0 0-.3-.17h-3.81c-.12 0-.24.07-.3.17l-1.79 3.12c-.06.11-.06.24 0 .35l1.79 3.12c.06.11.18.17.3.17h3.81c.12 0 .24-.07.3-.17l1.79-3.12c.06-.11.06-.24 0-.35m-7.06-.19 1.39-2.43h3l-1.39 2.43zm3.5.35 1.43-2.49 1.42 2.49-1.43 2.5zm-2.11 2.77-1.39-2.43h3l1.39 2.43z" style="fill:#fff;stroke-width:0"/>
    <rect x="368.62" y="412.3" width="77.57" height="16" rx="1.6" ry="1.6" transform="rotate(135 407.406 420.296)" style="fill:#1c222b;stroke:#bbbdbf;stroke-miterlimit:10;stroke-width:.37px"/>
    <path d="M427.67 396.85c-.39.09-.87.32-1.24.7-.56.56-.59 1.17-.17 1.6.39.39.85.39 1.63.04.93-.44 1.72-.51 2.31.08.66.66.6 1.69-.22 2.51-.43.43-.84.65-1.13.73l-.29-.6c.21-.05.62-.22.99-.59.58-.58.45-1.14.17-1.43-.39-.39-.84-.33-1.65.03-.99.43-1.7.45-2.31-.17s-.74-1.69.26-2.69c.41-.41.97-.73 1.35-.8l.31.6Zm-4.76 3.43 1.78 1.78 3.76 1.09-.62.62-1.75-.57c-.48-.16-.86-.28-1.29-.45h-.01c.16.41.29.82.45 1.31l.55 1.77-.62.62-1.01-3.83-1.79-1.79zm-1.62 2.95c-.39.09-.87.32-1.24.7-.56.56-.59 1.17-.17 1.6.39.39.85.39 1.63.04.93-.44 1.72-.51 2.31.08.66.66.6 1.69-.22 2.51-.43.43-.84.65-1.13.73l-.29-.6c.21-.05.62-.22.99-.59.58-.58.45-1.14.17-1.43-.39-.39-.84-.33-1.65.03-.99.43-1.7.45-2.31-.17s-.74-1.69.26-2.69c.41-.41.97-.73 1.35-.8l.31.6Zm-.87 7.04 1.28-1.28.46.46-3.12 3.12-.46-.46 1.29-1.29-3.75-3.75.55-.55zm-6.25 2.71 1.63-1.63-1.52-1.52-1.82 1.82-.45-.45 2.37-2.37 4.21 4.21-2.28 2.28-.45-.45 1.73-1.73-1.33-1.33-1.63 1.63-.45-.45Zm-4.58 4.32c.62.55 1.37 1.22 1.88 1.75l.02-.02c-.34-.63-.7-1.34-1.07-2.13l-1.3-2.78.41-.41 2.69 1.32c.8.39 1.5.77 2.12 1.15h.01c-.51-.55-1.18-1.28-1.77-1.95l-1.69-1.92.52-.52 3.92 4.5-.69.69-2.75-1.32c-.69-.34-1.29-.66-1.84-.99l-.02.02c.32.54.63 1.15.97 1.86l1.29 2.79-.7.7-4.47-3.95.53-.53 1.95 1.75Zm-.49 5.1c-.28.39-.64.82-1.07 1.25-.78.78-1.52 1.15-2.23 1.18-.72.04-1.42-.23-2.1-.91s-1.03-1.46-1.03-2.24c0-.79.44-1.66 1.26-2.47.39-.39.73-.7 1.04-.94l4.14 4.14Zm-4.27-3.18c-.16.12-.36.31-.57.52-1.17 1.16-1.15 2.44 0 3.58.99 1 2.18 1.07 3.32-.08.28-.28.47-.52.58-.69zm-4.25 7.34 1.63-1.63-1.52-1.52-1.82 1.82-.45-.45 2.37-2.37 4.21 4.21-2.28 2.28-.45-.45 1.73-1.73-1.33-1.33-1.63 1.63-.45-.45Zm-2.14-.48c-.39.09-.87.32-1.24.7-.56.56-.59 1.17-.17 1.6.39.39.85.39 1.63.04.93-.44 1.72-.51 2.31.08.66.66.6 1.69-.22 2.51-.43.43-.84.65-1.13.73l-.29-.6c.21-.05.62-.22.99-.59.58-.58.45-1.14.17-1.43-.39-.39-.84-.33-1.65.03-.99.43-1.7.45-2.31-.17s-.74-1.69.26-2.69c.41-.41.97-.73 1.35-.8l.31.6Zm-.15 7.24-4.21-4.21.55-.55 4.21 4.21zm-8.17.14c.15-.34.5-.96 1.06-1.53.64-.64 1.33-1 2.13-1.02.71-.01 1.49.32 2.15.98 1.25 1.26 1.31 3.04-.1 4.45-.49.49-.98.77-1.25.86l-.31-.58c.33-.12.69-.32 1.11-.75 1.02-1.02 1.05-2.33 0-3.38s-2.34-1.06-3.32-.07c-.36.36-.55.65-.61.84l1.25 1.25.85-.85.43.43-1.39 1.39-2.02-2.02Zm-1.02.63 4.21 4.21-.6.6-3.48-.78c-.8-.19-1.49-.38-2.12-.62v.02c.6.51 1.13 1.02 1.78 1.67l1.76 1.76-.51.51-4.21-4.21.55-.55 3.47.8c.76.18 1.52.38 2.19.63v-.02c-.55-.5-1.07-1-1.76-1.7l-1.8-1.8.51-.51Zm-4.32 8.27 1.63-1.63-1.52-1.52-1.82 1.82-.45-.45 2.37-2.37 4.21 4.21-2.28 2.28-.45-.45 1.73-1.73-1.33-1.33-1.63 1.63-.45-.45Z" style="fill:#fff;stroke-width:0"/>
    <rect x="433.6" y="376.95" width="18.3" height="16" rx="1.96" ry="1.96" transform="rotate(135 442.756 384.947)" style="fill:#4e7fea;stroke-width:0"/>
    <path d="m441.15 390.1.49.13c.37.1.56.15.72.08s.26-.24.44-.57l.32-.57c.13-.21.33-.36.56-.43l.19-.05c.21-.05.44-.02.64.07l.49.24c.32.16.48.24.65.22.16-.03.29-.15.54-.41l.41-.41c.25-.25.38-.38.41-.54s-.05-.32-.21-.65l-.24-.49c-.09-.2-.11-.43-.07-.64l.05-.19c.07-.23.23-.43.43-.56l.57-.32c.34-.19.5-.28.57-.44s.02-.35-.08-.72l-.13-.49c-.09-.35-.14-.52-.27-.63s-.31-.12-.67-.13l-.8-.04c-.21-.02-.48-.16-.66-.34s-.32-.45-.34-.66l-.04-.8c-.02-.36-.03-.54-.13-.67s-.28-.18-.63-.27l-.49-.13c-.37-.1-.56-.15-.72-.08s-.26.24-.44.57l-.32.57c-.13.21-.33.36-.56.43l-.19.05c-.21.05-.44.02-.64-.07l-.49-.24c-.32-.16-.48-.24-.65-.22-.16.03-.29.15-.54.41l-.41.41c-.25.25-.38.38-.41.54s.05.32.21.65l.24.49c.09.2.11.43.07.64l-.05.19c-.07.23-.23.43-.43.56l-.57.32c-.34.19-.5.28-.57.44s-.02.35.08.72l.13.49c.09.35.14.52.27.63s.31.12.67.13l.8.04c.21.02.48.16.66.34s.32.45.34.66l.04.8c.02.36.03.54.13.67s.28.18.63.27z" style="fill:none;stroke:#fff;stroke-linecap:round;stroke-width:.57px"/>
    <path d="M442.18 385.88v.36c0 .32 0 .48-.14.55s-.25 0-.48-.16c-.1-.07-.19-.14-.27-.23-.81-.81-.81-2.11 0-2.92.19-.19.41-.34.65-.44m1.34.98v-.4c0-.32 0-.48.14-.55s.25 0 .47.15c.95.63 1.21 1.91.57 2.86-.22.34-.54.6-.91.76" style="fill:none;stroke:#fff;stroke-linecap:round;stroke-linejoin:round;stroke-width:.57px"/>
    <rect x="200.08" y="475.3" width="82.5" height="16" rx="1.6" ry="1.6" transform="rotate(180 241.325 483.305)" style="fill:#1c222b;stroke:#bbbdbf;stroke-miterlimit:10;stroke-width:.39px"/>
    <path d="M274.6 485.99c-.47.08-1.03.13-1.64.13-1.1 0-1.89-.26-2.41-.75-.53-.48-.84-1.17-.84-2.13s.3-1.77.86-2.32 1.48-.86 2.64-.86c.55 0 1.01.02 1.4.07v5.86Zm-.77-5.27c-.19-.03-.48-.04-.77-.04-1.65 0-2.54.91-2.54 2.52 0 1.41.79 2.29 2.41 2.29.4 0 .7-.04.9-.08v-4.7Zm-8.2 2.19h2.31v-2.15h-2.58v-.64h3.35v5.95h-3.22v-.64h2.44v-1.89h-2.31v-.64Zm-1.17-1.86a2.7 2.7 0 0 0-1.37-.39c-.79 0-1.25.41-1.25 1.01 0 .55.32.88 1.13 1.18.97.34 1.57.86 1.57 1.69 0 .93-.77 1.61-1.93 1.61-.6 0-1.05-.14-1.31-.29l.21-.63c.19.11.59.28 1.12.28.82 0 1.13-.48 1.13-.89 0-.55-.36-.83-1.18-1.14-1.01-.4-1.52-.88-1.52-1.75s.67-1.72 2.08-1.72c.58 0 1.2.17 1.52.39l-.2.64Zm-5.23 5.02v-5.95h.77v5.95zm-5.87-5.68c.34-.13 1.03-.33 1.83-.33.9 0 1.65.23 2.23.79.51.49.83 1.28.83 2.21 0 1.78-1.22 3.08-3.22 3.08-.69 0-1.23-.15-1.49-.27l.19-.63c.32.14.71.25 1.32.25 1.44 0 2.39-.9 2.39-2.39s-.9-2.4-2.3-2.4c-.5 0-.84.07-1.02.16v1.77h1.21v.62h-1.96v-2.86Zm-1.17-.27v5.95h-.85l-1.91-3.01c-.43-.7-.78-1.32-1.06-1.94h-.02c.07.8.08 1.53.08 2.45v2.5h-.72v-5.95h.78l1.89 3.02c.41.67.81 1.35 1.11 1.99h.03c-.05-.76-.06-1.48-.06-2.47v-2.55h.72Zm-8.9 2.79h2.31v-2.15h-2.58v-.64h3.35v5.95h-3.22v-.64h2.44v-1.89h-2.31v-.64Zm-3.14 3.09c-.37.07-.86.12-1.48.12-.75 0-1.31-.17-1.67-.49-.32-.29-.52-.72-.52-1.25s.16-.97.46-1.27c.41-.44 1.07-.65 1.82-.65.23 0 .44 0 .62.06v-2.39h.77v5.88Zm-.77-2.87a2.4 2.4 0 0 0-.64-.07c-.93 0-1.5.46-1.5 1.27s.56 1.17 1.41 1.17c.34 0 .59-.03.73-.06v-2.32Zm-4.15-1.14.61-1.87h.8l-2.02 5.95h-.92l-2.03-5.95h.82l.64 1.87h2.11Zm-1.95.6.59 1.71c.13.39.22.74.31 1.09h.02c.09-.35.18-.71.3-1.08l.59-1.72h-1.8Zm-2.95 2.83h1.81v.65h-4.41v-.65h1.82v-5.3h.77v5.3Zm-4.73 0h1.81v.65H223v-.65h1.82v-5.3h.77v5.3Zm-6.34-2.51h2.31v-2.15h-2.58v-.64h3.35v5.95h-3.22v-.64h2.44v-1.89h-2.31v-.64Zm-1.26 3.08c-.39.08-.95.13-1.48.13-.82 0-1.35-.16-1.72-.49-.29-.26-.47-.67-.47-1.13 0-.78.5-1.3 1.12-1.52v-.02c-.45-.16-.73-.59-.87-1.21-.2-.83-.34-1.4-.46-1.63h.8c.09.17.23.68.39 1.43.18.82.5 1.13 1.19 1.15h.73v-2.58h.77zm-.77-2.71h-.79c-.82 0-1.34.45-1.34 1.13 0 .77.56 1.11 1.37 1.11.37 0 .63-.03.76-.07zm-3.99-3.16v5.95h-.85l-1.91-3.01c-.43-.7-.78-1.32-1.06-1.94h-.02c.07.8.08 1.53.08 2.45v2.5h-.72v-5.95h.78l1.89 3.02c.41.67.81 1.35 1.11 1.99h.03c-.05-.76-.06-1.48-.06-2.47v-2.55h.72Z" style="fill:#fff;stroke-width:0"/>
    <rect x="284.63" y="475.3" width="18.3" height="16" rx="1.96" ry="1.96" transform="rotate(180 293.78 483.305)" style="fill:#4dba81;stroke-width:0"/>
    <path d="M293.78 487.62c.36 0 .66-.3.66-.67s-.3-.67-.66-.67-.66.3-.66.67.3.67.66.67m1.74-.67c0 .96-.77 1.75-1.74 1.75s-1.74-.79-1.74-1.75c0-.76.48-1.43 1.2-1.67v-.45l-2.08-1.21v-2.4l-.44-.22c-.31.28-.72.43-1.14.43-.97 0-1.74-.79-1.74-1.75s.77-1.75 1.74-1.75 1.74.79 1.74 1.75c0 .14-.01.27-.04.4l.41.2 2.1-1.22 2.1 1.22.41-.2c-.03-.13-.04-.26-.04-.4 0-.96.77-1.75 1.74-1.75s1.74.79 1.74 1.75-.77 1.75-1.74 1.75c-.44 0-.83-.16-1.14-.43l-.44.22v2.4l-2.08 1.21v.45c.72.24 1.2.91 1.2 1.67m-1.74-3.05 1.54-.9v-1.81l-1.54-.9-1.54.9V483zm3.65-3.84c.12.18.32.29.54.29.36 0 .66-.3.66-.67s-.3-.67-.66-.67a.668.668 0 0 0-.62.89zm-7.23-.16a.662.662 0 0 0-.62-.89c-.36 0-.66.3-.66.67s.3.67.66.67c.22 0 .42-.11.54-.29z" style="fill:#fff;stroke-width:0"/>
    <rect x="38.22" y="398.02" width="85.73" height="16" rx="1.6" ry="1.6" transform="rotate(-135 81.085 406.023)" style="fill:#1c222b;stroke:#bbbdbf;stroke-miterlimit:10;stroke-width:.39px"/>
    <path d="M107.42 429.17c-.09-.39-.32-.87-.7-1.24-.56-.56-1.17-.59-1.6-.17-.39.39-.39.85-.04 1.63.44.93.51 1.72-.08 2.31-.66.66-1.69.6-2.51-.22-.43-.43-.65-.84-.73-1.13l.6-.29c.05.21.22.62.59.99.58.58 1.14.45 1.43.17.39-.39.33-.84-.03-1.65-.43-.99-.45-1.7.17-2.31s1.69-.74 2.69.26c.41.41.73.97.8 1.35l-.6.31Zm-3.43-4.75-1.78 1.78-1.09 3.76-.62-.62.57-1.75c.16-.48.28-.86.45-1.29h-.01c-.39.15-.81.28-1.29.44l-1.77.55-.62-.62 3.83-1.01 1.79-1.79.55.55Zm-2.95-1.63c-.09-.39-.32-.87-.7-1.24-.56-.56-1.17-.59-1.6-.17-.39.39-.39.85-.04 1.63.44.93.51 1.72-.08 2.31-.66.66-1.69.6-2.51-.22-.43-.43-.65-.84-.73-1.13l.6-.29c.05.21.22.62.59.99.58.58 1.14.45 1.43.17.39-.39.33-.84-.03-1.65-.43-.99-.45-1.7.17-2.31s1.69-.74 2.69.26c.41.41.73.97.8 1.35l-.6.31Zm-7.04-.87 1.28 1.28-.46.46-3.12-3.12.46-.46 1.29 1.29 3.75-3.75.55.55zm-2.71-6.25 1.63 1.63 1.52-1.52-1.82-1.82.45-.45 2.37 2.37-4.21 4.21-2.28-2.28.45-.45 1.73 1.73 1.33-1.33-1.63-1.63.45-.45Zm-4.32-4.58c-.55.62-1.22 1.37-1.75 1.88l.02.02c.63-.34 1.34-.7 2.13-1.07l2.78-1.3.41.41-1.32 2.69c-.39.8-.77 1.5-1.15 2.12h.01c.54-.5 1.27-1.17 1.94-1.76l1.92-1.69.52.52-4.5 3.92-.69-.69 1.32-2.75c.34-.69.66-1.29.99-1.84l-.02-.02c-.54.32-1.15.63-1.86.97l-2.79 1.29-.7-.7 3.95-4.47.53.53-1.75 1.95Zm-2.96-4 1.76-.89.56.56-5.64 2.78-.65-.65 2.77-5.65.58.58-.87 1.77 1.49 1.49Zm-1.81-.96-.79 1.63c-.18.37-.37.68-.55.98h.01c.31-.17.63-.36.97-.54l1.63-.8zm-4.16.65c-.33-.22-.76-.58-1.14-.95-.58-.58-.85-1.07-.87-1.57-.02-.39.14-.8.47-1.13.55-.55 1.27-.57 1.87-.28l.02-.02c-.21-.43-.1-.93.24-1.47.45-.73.75-1.23.83-1.48l.56.56c-.06.19-.32.64-.73 1.28-.45.7-.45 1.15.03 1.66l.51.51 1.82-1.82.54.54-4.15 4.15Zm1.37-2.46-.56-.56c-.58-.58-1.27-.63-1.75-.15-.55.55-.39 1.18.18 1.75.26.26.47.42.59.49l1.54-1.54Zm-3.67-7.88c.3.1.8.4 1.31.91 1.19 1.19 1.33 2.83-.06 4.21s-3.1 1.32-4.41.01c-.52-.52-.75-.97-.81-1.18l.58-.31c.11.3.32.67.67 1.02.99.99 2.27 1.01 3.38-.09 1.03-1.03 1.09-2.28.07-3.3-.33-.33-.74-.6-1.06-.72l.32-.54Zm-5.31 2.84 1.76-1.76-2.03-2.03-1.76 1.76-.55-.55 4.21-4.21.55.55-1.97 1.97 2.03 2.03 1.97-1.97.55.55-4.21 4.21zm-4.07-4.07 4.21-4.21.55.55-4.21 4.21zM65.07 393l1.28 1.28-.46.46-3.12-3.12.46-.46 1.29 1.29 3.75-3.75.55.55zm-2.7-6.26 1.63 1.63 1.52-1.52-1.82-1.82.45-.45 2.37 2.37-4.21 4.21-2.28-2.28.45-.45 1.73 1.73 1.33-1.33-1.63-1.63.45-.45Zm-2-5.68c.3.1.8.4 1.31.91 1.19 1.19 1.33 2.83-.06 4.21s-3.1 1.32-4.41.01c-.52-.52-.75-.97-.81-1.18l.58-.31c.11.3.32.67.67 1.02.99.99 2.27 1.01 3.38-.09 1.03-1.03 1.09-2.28.07-3.3-.33-.33-.74-.6-1.06-.72l.32-.54Zm-5.28 1.96 1.28 1.28-.46.46-3.12-3.12.46-.46 1.29 1.29 3.75-3.75.55.55z" style="fill:#fff;stroke-width:0"/>
    <rect x="110.17" y="436.26" width="18.3" height="16" rx="1.96" ry="1.96" transform="rotate(-135 119.323 444.258)" style="stroke-width:0"/>
    <path d="M116.39 440.45c.3.3.3.78 0 1.07s-.78.3-1.07 0-.3-.78 0-1.07.78-.3 1.07 0m-2.42 5.1c-.3.3-.3.78 0 1.07s.78.3 1.07 0 .3-.78 0-1.07-.78-.3-1.07 0m6.44-6.44c-.3.3-.3.78 0 1.07s.78.3 1.07 0 .3-.78 0-1.07-.78-.3-1.07 0m-3.76 3.22 1.1 1.1c-.72 0-1.4.27-1.91.78l-.54.54.54.54.54-.54c.74-.74 1.94-.74 2.68 0l1.88 1.88.54-.54-1.88-1.88c-.74-.74-.74-1.94 0-2.68l.54-.54-.54-.54-.54.54c-.53.53-.78 1.22-.78 1.91l-1.1-1.1-.54.54Zm5.01 2.17h.02l.56.15.55.14.55 2.14-1.55 1.55-2.14-.55-.14-.55-.14-.56v-.02l-.19-.73-.74.19.19.73v.02l.15.57.19.76c.02.07.05.13.1.17s.11.08.17.1l2.56.66c.13.03.27 0 .36-.1l1.85-1.85c.09-.09.13-.23.1-.36l-.66-2.56c-.02-.07-.05-.13-.1-.17s-.11-.08-.17-.1l-.76-.19-.57-.15h-.02l-.73-.19-.19.74.73.19Z" style="fill:#fff;stroke-width:0"/>
    <rect x="-4.57" y="231.82" width="39.53" height="16" rx="1.6" ry="1.6" transform="rotate(-90 15.19 239.82)" style="fill:#1c222b;stroke:#bbbdbf;stroke-miterlimit:10;stroke-width:.27px"/>
    <path d="M12.42 250.84h3.53c1.33 0 1.89-.59 1.89-1.39 0-.88-.58-1.45-1.89-1.45h-3.53v-.77h3.47c1.83 0 2.58.96 2.58 2.25 0 1.22-.69 2.13-2.54 2.13h-3.51zm0-5.72h5.95v.77h-5.95zm6.31-2.54-6.4-2.46v-.61l6.4 2.48zm-6.31-6.35h3.53c1.33 0 1.89-.59 1.89-1.39 0-.88-.58-1.45-1.89-1.45h-3.53v-.77h3.47c1.83 0 2.58.96 2.58 2.25 0 1.22-.69 2.13-2.54 2.13h-3.51zm5.96-8.21-1.32.76c-.5.31-.83.5-1.17.68v.02c.35.17.66.34 1.18.64l1.31.72v.89l-3.02-1.82-2.94 1.75v-.89l1.4-.79c.38-.22.68-.38 1.01-.55v-.02c-.35-.17-.63-.32-1.01-.54l-1.4-.81v-.89l2.9 1.82 3.05-1.86v.89Z" style="fill:#fff;stroke-width:0"/>
    <rect x="6.04" y="262.79" width="18.3" height="16" rx="1.96" ry="1.96" transform="rotate(-90 15.19 270.79)" style="fill:url(#a);stroke-width:0"/>
    <path d="M11.5 274.1c.04.54.44.96.97 1 .59.05 1.48.1 2.72.1s2.13-.05 2.72-.1c.54-.05.94-.47.97-1 .05-.68.1-1.76.1-3.31s-.05-2.64-.1-3.31c-.04-.54-.44-.96-.97-1-.59-.05-1.48-.1-2.72-.1s-2.13.05-2.72.1c-.54.05-.94.47-.97 1-.05.68-.1 1.76-.1 3.31s.05 2.64.1 3.31m6-1.42v-3.79" style="fill:none;stroke:#fff;stroke-linecap:round;stroke-linejoin:round;stroke-width:.63px"/>
    <rect x="59.8" y="69.93" width="68.68" height="16" rx="1.6" ry="1.6" transform="rotate(-45 94.133 77.939)" style="fill:#1c222b;stroke:#bbbdbf;stroke-miterlimit:10;stroke-width:.35px"/>
    <path d="M76.71 98.53c.39-.09.87-.32 1.24-.7.56-.56.59-1.17.17-1.6-.39-.39-.85-.39-1.63-.04-.93.44-1.72.51-2.31-.08-.66-.66-.6-1.69.22-2.51.43-.43.84-.65 1.13-.73l.29.6c-.21.05-.62.22-.99.59-.58.58-.45 1.14-.17 1.43.39.39.84.33 1.65-.03.99-.43 1.7-.45 2.31.17s.74 1.69-.26 2.69c-.41.41-.97.73-1.35.8l-.31-.6Zm3.08-3.08c.39-.09.87-.32 1.24-.7.56-.56.59-1.17.17-1.6-.39-.39-.85-.39-1.63-.04-.93.44-1.72.51-2.31-.08-.66-.66-.6-1.69.22-2.51.43-.43.84-.65 1.13-.73l.29.6c-.21.05-.62.22-.99.59-.58.58-.45 1.14-.17 1.43.39.39.84.33 1.65-.03.99-.43 1.7-.45 2.31.17s.74 1.69-.26 2.69c-.41.41-.97.73-1.35.8l-.31-.6Zm6.84-5.88c-.15.34-.5.96-1.06 1.53-.64.64-1.33 1-2.13 1.02-.71.01-1.49-.32-2.15-.98-1.25-1.26-1.31-3.04.1-4.45.49-.49.98-.77 1.25-.86l.31.58c-.33.12-.69.32-1.11.75-1.02 1.02-1.05 2.33 0 3.38s2.34 1.06 3.32.07c.36-.36.55-.65.61-.84l-1.25-1.25-.85.85-.43-.43 1.39-1.39 2.02 2.02Zm2.11-1.24-2.79-6.27.43-.43 2.78 6.28zm2.96-4.79c.39-.09.87-.32 1.24-.7.56-.56.59-1.17.17-1.6-.39-.39-.85-.39-1.63-.04-.93.44-1.72.51-2.31-.08-.66-.66-.6-1.69.22-2.51.43-.43.84-.65 1.13-.73l.29.6c-.21.05-.62.22-.99.59-.58.58-.45 1.14-.17 1.43.39.39.84.33 1.65-.03.99-.43 1.7-.45 2.31.17s.74 1.69-.26 2.69c-.41.41-.97.73-1.35.8l-.31-.6Zm3.08-3.08c.39-.09.87-.32 1.24-.7.56-.56.59-1.17.17-1.6-.39-.39-.85-.39-1.63-.04-.93.44-1.72.51-2.31-.08-.66-.66-.6-1.69.22-2.51.43-.43.84-.65 1.13-.73l.29.6c-.21.05-.62.22-.99.59-.58.58-.45 1.14-.17 1.43.39.39.84.33 1.65-.03.99-.43 1.7-.45 2.31.17s.74 1.69-.26 2.69c-.41.41-.97.73-1.35.8l-.31-.6Zm-.33-6.64c.22-.33.58-.76.95-1.14.58-.58 1.07-.85 1.57-.87.39-.02.8.14 1.13.47.55.55.57 1.27.28 1.87l.02.02c.43-.21.93-.1 1.47.24.73.45 1.23.75 1.48.83l-.56.56c-.19-.06-.64-.32-1.28-.73-.7-.45-1.15-.45-1.66.03l-.51.51 1.82 1.82-.54.54-4.15-4.15Zm2.46 1.37.56-.56c.58-.58.63-1.27.15-1.75-.55-.55-1.18-.39-1.75.18-.26.26-.42.47-.49.59l1.54 1.54Zm6.14-1.17-2.79-6.27.43-.43 2.78 6.28zm2.97-4.79c.39-.09.87-.32 1.24-.7.56-.56.59-1.17.17-1.6-.39-.39-.85-.39-1.63-.04-.93.44-1.72.51-2.31-.08-.66-.66-.6-1.69.22-2.51.43-.43.84-.65 1.13-.73l.29.6c-.21.05-.62.22-.99.59-.58.58-.45 1.14-.17 1.43.39.39.84.33 1.65-.03.99-.43 1.7-.45 2.31.17s.74 1.69-.26 2.69c-.41.41-.97.73-1.35.8l-.31-.6Zm-.35-6.65c.22-.31.52-.69.96-1.13.53-.53 1.05-.81 1.53-.83.43-.03.88.14 1.25.51s.57.8.57 1.23c.02.6-.29 1.22-.82 1.75-.16.16-.32.31-.48.4l1.69 1.69-.54.54zm2.57 1.48c.16-.09.32-.22.5-.4.66-.66.73-1.38.16-1.96s-1.23-.43-1.82.16c-.24.24-.4.44-.47.56l1.64 1.64Zm3.75-2.13.89 1.76-.56.56-2.78-5.64.65-.65 5.65 2.77-.58.58-1.77-.87-1.49 1.49Zm.96-1.81-1.63-.79c-.37-.18-.68-.37-.98-.55h-.01c.19.32.38.64.55.98l.8 1.63z" style="fill:#fff;stroke-width:0"/>
    <rect x="52.48" y="102.44" width="18.3" height="16" rx="1.96" ry="1.96" transform="rotate(-45 61.624 110.435)" style="stroke-width:0"/>
    <path d="M59.12 105.59c.15.02.3.09.59.25l6.41 3.42c-.85.27-1.66.67-2.39 1.18l-4.26-2.32a.176.176 0 0 0-.24.07c-.01.02-.02.04-.02.06 0 .04 0 .08.02.11l2.33 4.25c-.52.74-.92 1.55-1.19 2.4l-3.41-6.42c-.16-.29-.23-.44-.25-.59-.01-.13 0-.27.06-.39.06-.14.18-.26.41-.49l1.07-1.07c.24-.24.35-.35.49-.41.12-.05.26-.07.39-.06" style="fill:#e5e4e6;fill-rule:evenodd;stroke-width:0"/>
    <path d="M64.87 110.98c-.04.46-.38 1.09-.95 1.66-.7.7-1.5 1.06-1.94.93.11.22.29.43.41.55 0 0 .56.64 1.4.64a.543.543 0 0 1 0-.78c.37-.37.69-.05.96.22l.02.02c.4.4.98.5 1.47.29-.16-.06-.31-.15-.43-.27-.38-.38-.3-.74-.2-1.17.08-.34.16-.71.03-1.16-.07-.24-.2-.46-.38-.64-.11-.11-.24-.21-.38-.28" style="fill:#ff5d01;fill-rule:evenodd;stroke-width:0"/>
    <path d="M64.87 110.98c-.04.46-.38 1.09-.95 1.66-.7.7-1.5 1.06-1.94.93.11.22.29.43.41.55 0 0 .56.64 1.4.64a.543.543 0 0 1 0-.78c.37-.37.69-.05.96.22l.02.02c.4.4.98.5 1.47.29-.16-.06-.31-.15-.43-.27-.38-.38-.3-.74-.2-1.17.08-.34.16-.71.03-1.16-.07-.24-.2-.46-.38-.64-.11-.11-.24-.21-.38-.28" style="fill:url(#b);fill-rule:evenodd;stroke-width:0"/>
  </g>
  <circle xmlns="http://www.w3.org/2000/svg" cx="98.51" cy="90" r="69" style="fill:#0a0c0f;stroke-width:0;filter:blur(10px)"/>
  <circle xmlns="http://www.w3.org/2000/svg" cx="408.15" cy="90" r="69" style="fill:#0a0c0f;stroke-width:0;filter:blur(10px)"/>
</svg>
