<svg data-name="Layer 1" xmlns="http://www.w3.org/2000/svg" xmlns:xlink="http://www.w3.org/1999/xlink" viewBox="0 0 182.88 182.88"><defs><linearGradient id="a" x1="-15.64" y1="2440.16" x2="-6.01" y2="2452.88" gradientTransform="matrix(1 0 0 -1 24.94 2469.16)" gradientUnits="userSpaceOnUse"><stop offset=".02" stop-color="#6b6b6b"/><stop offset=".38" stop-color="#707070"/><stop offset=".76" stop-color="#787878"/><stop offset=".94" stop-color="#777"/></linearGradient><linearGradient id="g" x1="-14.93" y1="2439.66" x2="-5.32" y2="2452.36" xlink:href="#a"/><linearGradient id="h" x1=".84" y1="2440.3" x2="-4.59" y2="2453.2" gradientTransform="matrix(1 0 0 -1 24.94 2469.16)" gradientUnits="userSpaceOnUse"><stop offset=".18" stop-color="#6b6b6b"/><stop offset=".24" stop-color="#6d6d6d"/><stop offset=".34" stop-color="#6f6f6f"/><stop offset=".44" stop-color="#707070"/><stop offset=".52" stop-color="#707070"/></linearGradient><linearGradient id="i" x1="4.9" y1="2436.71" x2="-7.73" y2="2446.48" gradientTransform="matrix(1 0 0 -1 24.94 2469.16)" gradientUnits="userSpaceOnUse"><stop offset=".02" stop-color="#6b6b6b"/><stop offset=".38" stop-color="#707070"/></linearGradient><linearGradient id="j" x1="23.09" y1="23.09" x2="182.93" y2="182.94" gradientUnits="userSpaceOnUse"><stop offset="0" stop-color="#fff"/><stop offset=".02" stop-color="#e6e6e7"/><stop offset=".06" stop-color="#b6b7b7"/><stop offset=".1" stop-color="#8c8d8f"/><stop offset=".14" stop-color="#6a6c6d"/><stop offset=".19" stop-color="#505253"/><stop offset=".23" stop-color="#3d3f41"/><stop offset=".28" stop-color="#323436"/><stop offset=".33" stop-color="#2f3133"/><stop offset=".38" stop-color="#353739"/><stop offset=".45" stop-color="#484a4c"/><stop offset=".54" stop-color="#67696a"/><stop offset=".63" stop-color="#929394"/><stop offset=".69" stop-color="#b0b1b2"/><stop offset=".73" stop-color="#9a9b9c"/><stop offset=".92" stop-color="#333437"/><stop offset="1" stop-color="#0a0c0f"/></linearGradient><linearGradient id="b" x1="16.64" y1="161.32" x2="32.21" y2="161.32" gradientUnits="userSpaceOnUse"><stop offset="0" stop-color="#58595b"/><stop offset="1" stop-color="#404041"/></linearGradient><linearGradient id="c" x1="58.1" y1="116.03" x2="79.74" y2="116.03" gradientUnits="userSpaceOnUse"><stop offset="0" stop-color="#58595b"/><stop offset="1" stop-color="#404041"/></linearGradient><linearGradient id="k" x1="151.35" y1="118.24" x2="169.68" y2="118.24" xlink:href="#b"/><linearGradient id="l" x1="156.49" y1="118.24" x2="164.54" y2="118.24" xlink:href="#b"/><linearGradient id="m" x1="124.23" y1="71.72" x2="101.59" y2="71.72" xlink:href="#c"/><linearGradient id="d" x1="42.05" y1="47.63" x2="89.47" y2="47.63" gradientUnits="userSpaceOnUse"><stop offset="0" stop-color="#a6a8ab"/><stop offset="1" stop-color="#404041"/></linearGradient><linearGradient id="o" y1="71.99" y2="71.99" xlink:href="#d"/><linearGradient id="p" x1="42.05" y1="95.81" x2="89.47" y2="95.81" xlink:href="#d"/><linearGradient id="q" x1="37.02" x2="84.45" xlink:href="#d"/><linearGradient id="r" x1="37.02" y1="71.99" x2="84.45" y2="71.99" xlink:href="#d"/><linearGradient id="s" x1="37.02" y1="95.81" x2="84.45" y2="95.81" xlink:href="#d"/><linearGradient id="t" x1="32" x2="79.42" xlink:href="#d"/><linearGradient id="u" x1="32" y1="71.99" x2="79.42" y2="71.99" xlink:href="#d"/><linearGradient id="v" x1="32" y1="95.81" x2="79.42" y2="95.81" xlink:href="#d"/><linearGradient id="w" x1="26.97" x2="74.4" xlink:href="#d"/><linearGradient id="x" x1="26.97" y1="71.99" x2="74.4" y2="71.99" xlink:href="#d"/><linearGradient id="y" x1="26.97" y1="95.81" x2="74.4" y2="95.81" xlink:href="#d"/><linearGradient id="z" x1="21.95" x2="69.37" xlink:href="#d"/><linearGradient id="A" x1="21.95" y1="71.99" x2="69.37" y2="71.99" xlink:href="#d"/><linearGradient id="B" x1="21.95" y1="95.81" x2="69.37" y2="95.81" xlink:href="#d"/><linearGradient id="C" x1="16.92" x2="64.34" xlink:href="#d"/><linearGradient id="D" x1="16.92" y1="71.99" x2="64.34" y2="71.99" xlink:href="#d"/><linearGradient id="E" x1="16.92" y1="95.81" x2="64.34" y2="95.81" xlink:href="#d"/><linearGradient id="F" x1="11.9" x2="59.32" xlink:href="#d"/><linearGradient id="G" x1="11.9" y1="71.99" x2="59.32" y2="71.99" xlink:href="#d"/><linearGradient id="H" x1="11.9" y1="95.81" x2="59.32" y2="95.81" xlink:href="#d"/><linearGradient id="I" x1="6.87" x2="54.29" xlink:href="#d"/><linearGradient id="J" x1="6.87" y1="71.99" x2="54.29" y2="71.99" xlink:href="#d"/><linearGradient id="K" x1="6.87" y1="95.81" x2="54.29" y2="95.81" xlink:href="#d"/><linearGradient id="L" x1="82.66" x2="130.08" xlink:href="#d"/><linearGradient id="M" x1="82.66" y1="71.99" x2="130.08" y2="71.99" xlink:href="#d"/><linearGradient id="N" x1="82.66" y1="95.81" x2="130.08" y2="95.81" xlink:href="#d"/><linearGradient id="O" x1="77.64" x2="125.06" xlink:href="#d"/><linearGradient id="P" x1="77.64" y1="71.99" x2="125.06" y2="71.99" xlink:href="#d"/><linearGradient id="Q" x1="77.64" y1="95.81" x2="125.06" y2="95.81" xlink:href="#d"/><linearGradient id="R" x1="72.61" x2="120.03" xlink:href="#d"/><linearGradient id="S" x1="72.61" y1="71.99" x2="120.03" y2="71.99" xlink:href="#d"/><linearGradient id="T" x1="72.61" y1="95.81" x2="120.03" y2="95.81" xlink:href="#d"/><linearGradient id="U" x1="67.58" x2="115.01" xlink:href="#d"/><linearGradient id="V" x1="67.58" y1="71.99" x2="115.01" y2="71.99" xlink:href="#d"/><linearGradient id="W" x1="67.58" y1="95.81" x2="115.01" y2="95.81" xlink:href="#d"/><linearGradient id="X" x1="62.56" x2="109.98" xlink:href="#d"/><linearGradient id="Y" x1="62.56" y1="71.99" x2="109.98" y2="71.99" xlink:href="#d"/><linearGradient id="Z" x1="62.56" y1="95.81" x2="109.98" y2="95.81" xlink:href="#d"/><linearGradient id="aa" x1="57.53" x2="104.96" xlink:href="#d"/><linearGradient id="ab" x1="57.53" y1="71.99" x2="104.96" y2="71.99" xlink:href="#d"/><linearGradient id="ac" x1="57.53" y1="95.81" x2="104.96" y2="95.81" xlink:href="#d"/><linearGradient id="ad" x1="52.51" x2="99.93" xlink:href="#d"/><linearGradient id="ae" x1="52.51" y1="71.99" x2="99.93" y2="71.99" xlink:href="#d"/><linearGradient id="af" x1="52.51" y1="95.81" x2="99.93" y2="95.81" xlink:href="#d"/><linearGradient id="ag" x1="47.48" x2="94.9" xlink:href="#d"/><linearGradient id="ah" x1="47.48" y1="71.99" x2="94.9" y2="71.99" xlink:href="#d"/><linearGradient id="ai" x1="47.48" y1="95.81" x2="94.9" y2="95.81" xlink:href="#d"/><linearGradient id="ak" x1="86.26" y1="93.26" x2="135.53" y2="93.26" xlink:href="#d"/><linearGradient id="al" x1="86.26" y1="117.87" x2="135.53" y2="117.87" xlink:href="#d"/><linearGradient id="am" x1="86.26" y1="141.92" x2="135.53" y2="141.92" xlink:href="#d"/><linearGradient id="an" x1="81.04" y1="93.26" x2="130.3" y2="93.26" xlink:href="#d"/><linearGradient id="ao" x1="81.04" y1="117.87" x2="130.3" y2="117.87" xlink:href="#d"/><linearGradient id="ap" x1="81.04" y1="141.92" x2="130.3" y2="141.92" xlink:href="#d"/><linearGradient id="aq" x1="75.82" y1="93.26" x2="125.08" y2="93.26" xlink:href="#d"/><linearGradient id="ar" x1="75.82" y1="117.87" x2="125.08" y2="117.87" xlink:href="#d"/><linearGradient id="as" x1="75.82" y1="141.92" x2="125.08" y2="141.92" xlink:href="#d"/><linearGradient id="at" x1="70.6" y1="93.26" x2="119.86" y2="93.26" xlink:href="#d"/><linearGradient id="au" x1="70.6" y1="117.87" x2="119.86" y2="117.87" xlink:href="#d"/><linearGradient id="av" x1="70.6" y1="141.92" x2="119.86" y2="141.92" xlink:href="#d"/><linearGradient id="aw" x1="65.37" y1="93.26" x2="114.64" y2="93.26" xlink:href="#d"/><linearGradient id="ax" x1="65.37" y1="117.87" x2="114.64" y2="117.87" xlink:href="#d"/><linearGradient id="ay" x1="65.37" y1="141.92" x2="114.64" y2="141.92" xlink:href="#d"/><linearGradient id="az" x1="60.15" y1="93.26" x2="109.42" y2="93.26" xlink:href="#d"/><linearGradient id="aA" x1="60.15" y1="117.87" x2="109.42" y2="117.87" xlink:href="#d"/><linearGradient id="aB" x1="60.15" y1="141.92" x2="109.42" y2="141.92" xlink:href="#d"/><linearGradient id="aC" x1="54.93" y1="93.26" x2="104.2" y2="93.26" xlink:href="#d"/><linearGradient id="aD" x1="54.93" y1="117.87" x2="104.2" y2="117.87" xlink:href="#d"/><linearGradient id="aE" x1="54.93" y1="141.92" x2="104.2" y2="141.92" xlink:href="#d"/><linearGradient id="aF" x1="49.71" y1="93.26" x2="98.97" y2="93.26" xlink:href="#d"/><linearGradient id="aG" x1="49.71" y1="117.87" x2="98.97" y2="117.87" xlink:href="#d"/><linearGradient id="aH" x1="49.71" y1="141.92" x2="98.97" y2="141.92" xlink:href="#d"/><linearGradient id="aI" x1="128.46" y1="93.26" x2="177.72" y2="93.26" xlink:href="#d"/><linearGradient id="aJ" x1="128.46" y1="117.87" x2="177.72" y2="117.87" xlink:href="#d"/><linearGradient id="aK" x1="128.46" y1="141.92" x2="177.72" y2="141.92" xlink:href="#d"/><linearGradient id="aL" x1="123.23" y1="93.26" x2="172.5" y2="93.26" xlink:href="#d"/><linearGradient id="aM" x1="123.23" y1="117.87" x2="172.5" y2="117.87" xlink:href="#d"/><linearGradient id="aN" x1="123.23" y1="141.92" x2="172.5" y2="141.92" xlink:href="#d"/><linearGradient id="aO" x1="118.01" y1="93.26" x2="167.28" y2="93.26" xlink:href="#d"/><linearGradient id="aP" x1="118.01" y1="117.87" x2="167.28" y2="117.87" xlink:href="#d"/><linearGradient id="aQ" x1="118.01" y1="141.92" x2="167.28" y2="141.92" xlink:href="#d"/><linearGradient id="aR" x1="112.79" y1="93.26" x2="162.06" y2="93.26" xlink:href="#d"/><linearGradient id="aS" x1="112.79" y1="117.87" x2="162.06" y2="117.87" xlink:href="#d"/><linearGradient id="aT" x1="112.79" y1="141.92" x2="162.06" y2="141.92" xlink:href="#d"/><linearGradient id="aU" x1="107.57" y1="93.26" x2="156.83" y2="93.26" xlink:href="#d"/><linearGradient id="aV" x1="107.57" y1="117.87" x2="156.83" y2="117.87" xlink:href="#d"/><linearGradient id="aW" x1="107.57" y1="141.92" x2="156.83" y2="141.92" xlink:href="#d"/><linearGradient id="aX" x1="102.35" y1="93.26" x2="151.61" y2="93.26" xlink:href="#d"/><linearGradient id="aY" x1="102.35" y1="117.87" x2="151.61" y2="117.87" xlink:href="#d"/><linearGradient id="aZ" x1="102.35" y1="141.92" x2="151.61" y2="141.92" xlink:href="#d"/><linearGradient id="ba" x1="97.13" y1="93.26" x2="146.39" y2="93.26" xlink:href="#d"/><linearGradient id="bb" x1="97.13" y1="117.87" x2="146.39" y2="117.87" xlink:href="#d"/><linearGradient id="bc" x1="97.13" y1="141.92" x2="146.39" y2="141.92" xlink:href="#d"/><linearGradient id="bd" x1="91.9" y1="93.26" x2="141.17" y2="93.26" xlink:href="#d"/><linearGradient id="be" x1="91.9" y1="117.87" x2="141.17" y2="117.87" xlink:href="#d"/><linearGradient id="bf" x1="91.9" y1="141.92" x2="141.17" y2="141.92" xlink:href="#d"/><linearGradient id="bh" x1="86.25" y1="1.65" x2="135.53" y2="1.65" xlink:href="#d"/><linearGradient id="bi" x1="86.25" y1="26.01" x2="135.53" y2="26.01" xlink:href="#d"/><linearGradient id="bj" x1="86.25" y1="49.83" x2="135.53" y2="49.83" xlink:href="#d"/><linearGradient id="bk" x1="81.03" y1="1.65" x2="130.3" y2="1.65" xlink:href="#d"/><linearGradient id="bl" x1="81.03" y1="26.01" x2="130.3" y2="26.01" xlink:href="#d"/><linearGradient id="bm" x1="81.03" y1="49.83" x2="130.3" y2="49.83" xlink:href="#d"/><linearGradient id="bn" x1="75.81" y1="1.65" x2="125.08" y2="1.65" xlink:href="#d"/><linearGradient id="bo" x1="75.81" y1="26.01" x2="125.08" y2="26.01" xlink:href="#d"/><linearGradient id="bp" x1="75.81" y1="49.83" x2="125.08" y2="49.83" xlink:href="#d"/><linearGradient id="bq" x1="70.59" y1="1.65" x2="119.86" y2="1.65" xlink:href="#d"/><linearGradient id="br" x1="70.59" y1="26.01" x2="119.86" y2="26.01" xlink:href="#d"/><linearGradient id="bs" x1="70.59" y1="49.83" x2="119.86" y2="49.83" xlink:href="#d"/><linearGradient id="bt" x1="65.37" y1="1.65" x2="114.64" y2="1.65" xlink:href="#d"/><linearGradient id="bu" x1="65.37" y1="26.01" x2="114.64" y2="26.01" xlink:href="#d"/><linearGradient id="bv" x1="65.37" y1="49.83" x2="114.64" y2="49.83" xlink:href="#d"/><linearGradient id="bw" x1="60.14" y1="1.65" x2="109.41" y2="1.65" xlink:href="#d"/><linearGradient id="bx" x1="60.14" y1="26.01" x2="109.41" y2="26.01" xlink:href="#d"/><linearGradient id="by" x1="60.14" y1="49.83" x2="109.41" y2="49.83" xlink:href="#d"/><linearGradient id="bz" x1="54.92" y1="1.65" x2="104.19" y2="1.65" xlink:href="#d"/><linearGradient id="bA" x1="54.92" y1="26.01" x2="104.19" y2="26.01" xlink:href="#d"/><linearGradient id="bB" x1="54.92" y1="49.83" x2="104.19" y2="49.83" xlink:href="#d"/><linearGradient id="bC" x1="49.7" y1="1.65" x2="98.97" y2="1.65" xlink:href="#d"/><linearGradient id="bD" x1="49.7" y1="26.01" x2="98.97" y2="26.01" xlink:href="#d"/><linearGradient id="bE" x1="49.7" y1="49.83" x2="98.97" y2="49.83" xlink:href="#d"/><linearGradient id="bF" x1="128.46" y1="1.65" x2="177.73" y2="1.65" xlink:href="#d"/><linearGradient id="bG" x1="128.46" y1="26.01" x2="177.73" y2="26.01" xlink:href="#d"/><linearGradient id="bH" x1="128.46" y1="49.83" x2="177.73" y2="49.83" xlink:href="#d"/><linearGradient id="bI" x1="123.23" y1="1.65" x2="172.5" y2="1.65" xlink:href="#d"/><linearGradient id="bJ" x1="123.23" y1="26.01" x2="172.5" y2="26.01" xlink:href="#d"/><linearGradient id="bK" x1="123.23" y1="49.83" x2="172.5" y2="49.83" xlink:href="#d"/><linearGradient id="bL" x1="118.01" y1="1.65" x2="167.28" y2="1.65" xlink:href="#d"/><linearGradient id="bM" x1="118.01" y1="26.01" x2="167.28" y2="26.01" xlink:href="#d"/><linearGradient id="bN" x1="118.01" y1="49.83" x2="167.28" y2="49.83" xlink:href="#d"/><linearGradient id="bO" x1="112.79" y1="1.65" x2="162.06" y2="1.65" xlink:href="#d"/><linearGradient id="bP" x1="112.79" y1="26.01" x2="162.06" y2="26.01" xlink:href="#d"/><linearGradient id="bQ" x1="112.79" y1="49.83" x2="162.06" y2="49.83" xlink:href="#d"/><linearGradient id="bR" x1="107.57" y1="1.65" x2="156.84" y2="1.65" xlink:href="#d"/><linearGradient id="bS" x1="107.57" y1="26.01" x2="156.84" y2="26.01" xlink:href="#d"/><linearGradient id="bT" x1="107.57" y1="49.83" x2="156.84" y2="49.83" xlink:href="#d"/><linearGradient id="bU" x1="102.34" y1="1.65" x2="151.61" y2="1.65" xlink:href="#d"/><linearGradient id="bV" x1="102.34" y1="26.01" x2="151.61" y2="26.01" xlink:href="#d"/><linearGradient id="bW" x1="102.34" y1="49.83" x2="151.61" y2="49.83" xlink:href="#d"/><linearGradient id="bX" x1="97.12" y1="1.65" x2="146.39" y2="1.65" xlink:href="#d"/><linearGradient id="bY" x1="97.12" y1="26.01" x2="146.39" y2="26.01" xlink:href="#d"/><linearGradient id="bZ" x1="97.12" y1="49.83" x2="146.39" y2="49.83" xlink:href="#d"/><linearGradient id="ca" x1="91.9" y1="1.65" x2="141.17" y2="1.65" xlink:href="#d"/><linearGradient id="cb" x1="91.9" y1="26.01" x2="141.17" y2="26.01" xlink:href="#d"/><linearGradient id="cc" x1="91.9" y1="49.83" x2="141.17" y2="49.83" xlink:href="#d"/><clipPath id="e"><path style="fill:none;stroke-width:0" d="M3.88 8.41h33.54v33.54H3.88z"/></clipPath><clipPath id="f"><path style="fill:none;stroke-width:0" d="M9.13 13.65h22.93v22.93H9.13z"/></clipPath><clipPath id="n"><path style="fill:none;stroke-width:0" d="M46.29 48.73h44.37v45.98H46.29z"/></clipPath><clipPath id="aj"><path style="fill:none;stroke-width:0" d="M90.66 94.37h46.1v46.44h-46.1z"/></clipPath><clipPath id="bg"><path style="fill:none;stroke-width:0" d="M90.66 2.75h46.11v45.98H90.66z"/></clipPath></defs><path d="M148.51 69.83s-.48-.35.1-.81l1.34-1.2s.38-.4.79-.05l12.36 9.36v4.49s0 .7-.91.63l-13.67-12.42Z" style="fill:#717171;stroke-width:0"/><path d="m151.69 72.72-3.19 2.9s-.33.24 0 .68l1.48 1.35s.35.38.87-.05l3.38-2.56-2.54-2.31Z" style="fill:#5a5a5a;stroke-width:0"/><path d="m157.28 72.75 5.84-4.46-.04-4.46s-.25-.97-1.08-.47l-7.77 7.08 3.05 2.32Z" style="fill:#5c5c5c;stroke-width:0"/><path d="M162.18 82.25c.34.35.75.23.75.23l4.55-2.24c.58-.4.5-.89.5-.89v-13.4c0-.59-.6-.79-.6-.79l-3.95-1.9c-.86-.53-1.43.1-1.43.1s.73-.52 1.08.47v17.72c0 .12-.03.24-.08.35-.1.21-.33.41-.87.32l.04.04Z" style="fill:#838383;stroke-width:0"/><g style="opacity:.65"><g style="clip-path:url(#e)"><path d="M29.57 8.41H11.75c-4.34 0-7.86 3.52-7.86 7.86v17.82c0 4.34 3.52 7.86 7.86 7.86h17.82c4.34 0 7.86-3.52 7.86-7.86V16.27c0-4.34-3.52-7.86-7.86-7.86" style="fill:none;stroke-width:0"/><g style="clip-path:url(#f)"><path d="m22.1 18.63-1.08-3.28-7.99-1.7-3.9 4.42 12.19 6.22.79-5.67Z" style="fill:url(#a);stroke-width:0"/><path d="m18.3 27.22-.23-6.81-8.94-2.33 2.19 13.14 6.98-.07z" style="fill:url(#g);stroke-width:0"/><path d="m16.36 27.09.43-5.41 6.49-6.65 5.8 1.05 2.98 7.44-3.11 3.08-5.08-.82-3.14 3.31-4.36-2Z" style="fill:url(#h);stroke-width:0"/><path d="m23.28 15.03-9.3 8.26 1.8 10.61 7.73 2.69 8.55-5.11-8.78-16.44Z" style="fill:url(#i);stroke-width:0"/><path d="M27.67 18.04H13.52v14.15h14.15z" style="stroke-width:0"/><path d="M20.17 29.54h-5.31v.88h5.31zm-5.37-9.66h2.39c1.41 0 2.26.82 2.26 2.03v.03c0 1.38-1.05 2.06-2.39 2.06h-.98v1.77H14.8v-5.9Zm2.33 2.95c.66 0 1.02-.39 1.02-.88v-.03c0-.59-.39-.88-1.05-.88h-.98v1.8h1.02Zm2.65 2.1.75-.92c.52.43 1.08.72 1.77.72.52 0 .85-.2.85-.56v-.03c0-.33-.2-.49-1.18-.75-1.18-.29-1.97-.62-1.97-1.8v-.03c0-1.08.85-1.77 2.06-1.77.85 0 1.61.26 2.19.75l-.69.98c-.52-.36-1.05-.59-1.54-.59s-.75.23-.75.52v.03c0 .39.26.52 1.28.79 1.18.33 1.87.75 1.87 1.77v.03c0 1.18-.88 1.83-2.16 1.83a4.04 4.04 0 0 1-2.49-.98" style="fill:#dfdfdf;stroke-width:0"/></g></g></g><g style="opacity:.78"><path d="M104.2 157.04V167h17.42v-9.96l-8.71-4.98" style="fill:#444445;stroke-width:0"/><path d="M112.91 162.02v-9.96l-8.71 4.98 17.42 9.96-8.71 4.98-8.71-4.98" style="fill:#939292;stroke-width:0"/><path d="M121.62 157.04h-8.71v14.93" style="fill:#cdcdcc;stroke-width:0"/><path d="M104.2 157.04h17.42l-8.71 4.98" style="fill:#e7d9ea;stroke-width:0"/></g><path d="M67.33 15.73c1.14 0 2.24.15 3.3.44s2.04.71 2.96 1.26c.91.55 1.75 1.2 2.51 1.94s1.41 1.58 1.95 2.51.96 1.92 1.25 2.97.44 2.15.45 3.3c0 1.33-.2 2.62-.61 3.86s-.98 2.37-1.73 3.41-1.64 1.94-2.68 2.72-2.19 1.38-3.47 1.81c-.02 0-.06.01-.11.01s-.08 0-.11.01c-.19 0-.35-.06-.46-.17s-.17-.26-.17-.45v-1.7c0-.56 0-1.13.01-1.71 0-.41-.06-.83-.18-1.25s-.34-.77-.65-1.05q1.41-.165 2.46-.57c1.05-.405 1.29-.66 1.77-1.16s.83-1.11 1.07-1.82.36-1.57.36-2.57c0-.63-.11-1.22-.32-1.78s-.53-1.07-.96-1.55c.09-.23.15-.46.19-.7s.06-.48.06-.73c0-.32-.03-.63-.1-.93a5.4 5.4 0 0 0-.28-.92c-.04-.02-.08-.02-.13-.02h-.13q-.39 0-.81.12c-.42.12-.56.19-.84.32s-.55.27-.81.42c-.27.15-.5.3-.69.44-1.01-.28-2.04-.42-3.1-.42s-2.09.14-3.1.42c-.2-.14-.43-.28-.69-.44a7.8 7.8 0 0 0-1.65-.73c-.29-.09-.56-.13-.81-.13h-.13s-.09 0-.13.02c-.11.3-.2.6-.27.91-.06.31-.1.62-.11.95 0 .24.02.48.06.73s.11.48.19.7c-.43.47-.75.98-.96 1.54s-.32 1.16-.32 1.79c0 .99.12 1.84.35 2.56s.59 1.33 1.07 1.82 1.07.89 1.77 1.18 1.52.48 2.46.58c-.23.21-.41.46-.53.75s-.21.59-.25.91q-.33.165-.69.24c-.36.075-.48.08-.73.08q-.78 0-1.29-.36c-.51-.36-.64-.57-.91-.99-.1-.15-.21-.31-.35-.46s-.29-.29-.45-.41-.34-.22-.52-.29-.38-.11-.58-.12h-.15c-.06 0-.13.01-.18.04s-.11.05-.17.07-.08.06-.07.12c0 .1.06.19.17.28s.21.16.28.22l.04.02c.18.14.33.27.46.39s.25.25.36.4.21.3.28.46.17.35.28.57c.27.63.66 1.09 1.15 1.37s1.09.43 1.78.44c.21 0 .42-.01.63-.04s.42-.06.63-.11v2.11c0 .19-.06.35-.17.46s-.27.17-.47.17h-.1s-.08 0-.11-.02c-1.27-.41-2.42-1.01-3.47-1.78s-1.94-1.69-2.68-2.73-1.32-2.18-1.72-3.42-.61-2.52-.62-3.86c0-1.14.15-2.24.44-3.3s.71-2.04 1.26-2.96c.55-.91 1.2-1.75 1.94-2.51s1.58-1.41 2.51-1.95 1.92-.96 2.97-1.25 2.15-.44 3.3-.45" style="fill:#4f4f4f;stroke-width:0"/><path d="M182.87 0v182.88M136.77 0v182.88M90.66 0v182.88M46.29 0v182.88m136.59-42.07H0m182.88 42.07H0M182.88 94.7H0m182.88-46.1H0" style="fill:none;stroke:url(#j);stroke-miterlimit:10;stroke-width:.22px"/><path d="M156.37 164.3v-8.5l6.6-3.81c3.66-2.11 10.21 3.1 7.46 7.87" style="fill:none;stroke:#686868;stroke-linejoin:round;stroke-width:.89px"/><path d="m156.37 160.17 7.36-4.25 6.6 3.81c3.66 2.11 2.42 10.39-3.09 10.39" style="fill:none;stroke:#686868;stroke-linejoin:round;stroke-width:.89px"/><path d="m159.94 158.1 7.36 4.25v7.63c0 4.23-7.79 7.29-10.54 2.53" style="fill:none;stroke:#686868;stroke-linejoin:round;stroke-width:.89px"/><path d="M163.52 160.32v8.35l-6.6 3.81c-3.66 2.11-10.21-3.1-7.46-7.87" style="fill:none;stroke:#686868;stroke-linejoin:round;stroke-width:.89px"/><path d="m163.52 164.3-7.36 4.25-6.6-3.81c-3.67-2.12-2.43-10.39 3.08-10.39" style="fill:none;stroke:#686868;stroke-linejoin:round;stroke-width:.89px"/><path d="m159.94 166.36-7.36-4.25v-7.63c0-4.23 7.79-7.29 10.54-2.53" style="fill:none;stroke:#686868;stroke-linejoin:round;stroke-width:.89px"/><path d="M165.88 21.42h-3.31l5.92 15h3.23zm-9.54 0-5.85 15h3.31l1.31-3.15h6.15l1.23 3.08h3.31l-6-14.92h-3.46Zm-.31 9.08 2-5.31 2.08 5.31z" style="fill:#8b8c8c;stroke-width:0"/><path d="M31.77 157.24c0 1.8-3.29 3.26-7.34 3.26s-7.34-1.46-7.34-3.26m14.69 0c0-1.8-3.29-3.26-7.34-3.26s-7.34 1.46-7.34 3.26m14.69 0v4.08m-14.69-4.08v4.08m14.69 0c0 1.8-3.29 3.26-7.34 3.26s-7.34-1.46-7.34-3.26m14.69 0v4.08c0 1.8-3.29 3.26-7.34 3.26s-7.34-1.46-7.34-3.26v-4.08" style="fill:none;stroke:url(#b);stroke-linejoin:round;stroke-width:.89px"/><path d="M68.92 108.16c-.65 0-1.2.54-1.2 1.23s.55 1.23 1.2 1.23 1.2-.54 1.2-1.23-.55-1.23-1.2-1.23m-3.17 1.23c0-1.75 1.41-3.2 3.17-3.2s3.17 1.44 3.17 3.2c0 1.38-.88 2.6-2.19 3.04v.82l3.79 2.21v4.38l.8.4c.57-.5 1.31-.78 2.08-.78 1.76 0 3.17 1.44 3.17 3.2s-1.41 3.2-3.17 3.2-3.17-1.44-3.17-3.2c0-.25.03-.49.08-.72l-.74-.37-3.82 2.23-3.82-2.23-.74.37c.05.23.08.47.08.72 0 1.75-1.41 3.2-3.17 3.2s-3.17-1.44-3.17-3.2 1.41-3.2 3.17-3.2c.8 0 1.52.3 2.08.78l.8-.4v-4.38l3.79-2.21v-.82a3.2 3.2 0 0 1-2.19-3.04m3.17 5.57-2.8 1.64v3.3l2.8 1.64 2.8-1.64v-3.3zm-6.66 7.01c-.22-.33-.59-.52-.99-.53-.65 0-1.2.54-1.2 1.23s.55 1.23 1.2 1.23 1.2-.54 1.2-1.23c0-.14-.02-.28-.07-.41l-.15-.3Zm13.18.3c-.04.13-.07.27-.07.41 0 .69.55 1.23 1.2 1.23s1.2-.54 1.2-1.23-.55-1.23-1.2-1.23c-.4 0-.77.21-.99.52l-.15.3Z" style="fill:url(#c);stroke-width:0"/><path d="m168.79 113.89-.44-.77c-.33-.58-.5-.87-.78-.98-.28-.12-.61-.03-1.25.16l-1.09.31c-.41.09-.84.04-1.22-.15l-.3-.17c-.32-.21-.57-.51-.7-.87l-.3-.89c-.2-.59-.3-.89-.53-1.06-.24-.17-.55-.17-1.17-.17h-1c-.62 0-.93 0-1.17.17-.23.17-.33.46-.53 1.05l-.3.89c-.14.36-.38.66-.7.87l-.3.17c-.37.19-.8.25-1.22.15l-1.09-.31c-.64-.18-.96-.27-1.25-.16-.28.12-.45.41-.78.98l-.44.77c-.31.54-.47.81-.44 1.1s.24.52.66.99l.92 1.03c.23.29.39.78.39 1.23s-.16.94-.39 1.23l-.92 1.03c-.42.47-.63.7-.66.99s.13.56.44 1.1l.44.77c.33.58.5.87.78.98.28.12.61.03 1.25-.16l1.09-.31c.41-.09.84-.04 1.22.15l.3.17c.32.21.57.51.7.87l.3.89c.2.59.3.89.53 1.06s.55.17 1.17.17h1c.62 0 .93 0 1.17-.17.23-.17.33-.46.53-1.05l.3-.89c.14-.36.38-.66.7-.87l.3-.17c.37-.19.8-.25 1.22-.15l1.09.31c.64.18.96.27 1.25.16.28-.12.45-.41.78-.98l.44-.77c.31-.54.47-.81.44-1.1s-.24-.52-.66-.99l-.92-1.03c-.23-.29-.39-.78-.39-1.23s.16-.94.39-1.23l.92-1.03c.42-.47.63-.7.66-.99s-.13-.56-.44-1.1Z" style="fill:none;stroke:url(#k);stroke-linejoin:round;stroke-width:.89px"/><path d="m162.36 117.79.45-.45c.39-.39.59-.59.85-.51s.3.32.38.78c.04.2.05.41.05.62a3.576 3.576 0 0 1-4.92 3.32m-.45-2.84-.49.49c-.39.39-.58.58-.84.51-.26-.08-.3-.31-.39-.77a3.577 3.577 0 0 1 4.85-4.02" style="fill:none;stroke:url(#l);stroke-linejoin:round;stroke-width:.89px"/><path d="M122.67 73.28c-.86 0-1.56-.7-1.56-1.56s.7-1.56 1.56-1.56 1.56.7 1.56 1.56-.7 1.56-1.56 1.56m-3.9-10.93c0-.86-.7-1.56-1.56-1.56s-1.56.7-1.56 1.56.7 1.56 1.56 1.56 1.56-.7 1.56-1.56m0 18.73c0-.86-.7-1.56-1.56-1.56s-1.56.7-1.56 1.56.7 1.56 1.56 1.56 1.56-.7 1.56-1.56m.78-10.15h-3.21a5.45 5.45 0 0 0 1.65-3.9v-1.56h-1.56v1.56c0 2.15-1.75 3.9-3.9 3.9h-5.46v1.56h5.46c2.15 0 3.9 1.75 3.9 3.9v1.56h1.56v-1.56c0-1.53-.63-2.91-1.65-3.9h3.21zm-10.44 4.13-.03.02-1.02.6-1 .59-3.9-2.31v-4.5l3.9-2.31 1 .59 1.02.6.03.02 1.33.8.8-1.34-1.33-.8-.03-.02-1.04-.61-1.38-.82c-.12-.07-.26-.11-.4-.11s-.27.04-.4.11l-4.68 2.77c-.23.14-.38.4-.38.67v5.39c0 .27.15.53.38.67l4.68 2.77c.12.07.26.11.4.11s.27-.04.4-.11l1.38-.82 1.04-.61.03-.02 1.33-.8-.8-1.34-1.33.8Z" style="fill:url(#m);stroke-width:0"/><g style="clip-path:url(#n)"><path style="fill:none;stroke:url(#d);stroke-linecap:round;stroke-width:.39px" d="m89.28 47.35-.54.55"/><path style="fill:none;stroke:url(#o);stroke-dasharray:0 0 1.54 1.54;stroke-linecap:round;stroke-width:.39px" d="M87.67 49.01 43.32 94.97"/><path style="fill:none;stroke:url(#p);stroke-linecap:round;stroke-width:.39px" d="m42.78 95.53-.54.55"/><path style="fill:none;stroke:url(#q);stroke-linecap:round;stroke-width:.39px" d="m84.25 47.35-.54.55"/><path style="fill:none;stroke:url(#r);stroke-dasharray:0 0 1.54 1.54;stroke-linecap:round;stroke-width:.39px" d="M82.65 49.01 38.29 94.97"/><path style="fill:none;stroke:url(#s);stroke-linecap:round;stroke-width:.39px" d="m37.76 95.53-.54.55"/><path style="fill:none;stroke:url(#t);stroke-linecap:round;stroke-width:.39px" d="m79.23 47.35-.54.55"/><path style="fill:none;stroke:url(#u);stroke-dasharray:0 0 1.54 1.54;stroke-linecap:round;stroke-width:.39px" d="M77.62 49.01 33.27 94.97"/><path style="fill:none;stroke:url(#v);stroke-linecap:round;stroke-width:.39px" d="m32.73 95.53-.54.55"/><path style="fill:none;stroke:url(#w);stroke-linecap:round;stroke-width:.39px" d="m74.2 47.35-.54.55"/><path style="fill:none;stroke:url(#x);stroke-dasharray:0 0 1.54 1.54;stroke-linecap:round;stroke-width:.39px" d="M72.59 49.01 28.24 94.97"/><path style="fill:none;stroke:url(#y);stroke-linecap:round;stroke-width:.39px" d="m27.71 95.53-.54.55"/><path style="fill:none;stroke:url(#z);stroke-linecap:round;stroke-width:.39px" d="m69.18 47.35-.54.55"/><path style="fill:none;stroke:url(#A);stroke-dasharray:0 0 1.54 1.54;stroke-linecap:round;stroke-width:.39px" d="M67.57 49.01 23.21 94.97"/><path style="fill:none;stroke:url(#B);stroke-linecap:round;stroke-width:.39px" d="m22.68 95.53-.54.55"/><path style="fill:none;stroke:url(#C);stroke-linecap:round;stroke-width:.39px" d="m64.15 47.35-.54.55"/><path style="fill:none;stroke:url(#D);stroke-dasharray:0 0 1.54 1.54;stroke-linecap:round;stroke-width:.39px" d="M62.54 49.01 18.19 94.97"/><path style="fill:none;stroke:url(#E);stroke-linecap:round;stroke-width:.39px" d="m17.65 95.53-.53.55"/><path style="fill:none;stroke:url(#F);stroke-linecap:round;stroke-width:.39px" d="m59.12 47.35-.53.55"/><path style="fill:none;stroke:url(#G);stroke-dasharray:0 0 1.54 1.54;stroke-linecap:round;stroke-width:.39px" d="M57.52 49.01 13.16 94.97"/><path style="fill:none;stroke:url(#H);stroke-linecap:round;stroke-width:.39px" d="m12.63 95.53-.54.55"/><path style="fill:none;stroke:url(#I);stroke-linecap:round;stroke-width:.39px" d="m54.1 47.35-.54.55"/><path style="fill:none;stroke:url(#J);stroke-dasharray:0 0 1.54 1.54;stroke-linecap:round;stroke-width:.39px" d="M52.49 49.01 8.14 94.97"/><path style="fill:none;stroke:url(#K);stroke-linecap:round;stroke-width:.39px" d="m7.6 95.53-.54.55"/><path style="fill:none;stroke:url(#L);stroke-linecap:round;stroke-width:.39px" d="m129.89 47.35-.54.55"/><path style="fill:none;stroke:url(#M);stroke-dasharray:0 0 1.54 1.54;stroke-linecap:round;stroke-width:.39px" d="M128.28 49.01 83.93 94.97"/><path style="fill:none;stroke:url(#N);stroke-linecap:round;stroke-width:.39px" d="m83.39 95.53-.53.55"/><path style="fill:none;stroke:url(#O);stroke-linecap:round;stroke-width:.39px" d="m124.86 47.35-.53.55"/><path style="fill:none;stroke:url(#P);stroke-dasharray:0 0 1.54 1.54;stroke-linecap:round;stroke-width:.39px" d="M123.26 49.01 78.9 94.97"/><path style="fill:none;stroke:url(#Q);stroke-linecap:round;stroke-width:.39px" d="m78.37 95.53-.54.55"/><path style="fill:none;stroke:url(#R);stroke-linecap:round;stroke-width:.39px" d="m119.84 47.35-.54.55"/><path style="fill:none;stroke:url(#S);stroke-dasharray:0 0 1.54 1.54;stroke-linecap:round;stroke-width:.39px" d="M118.23 49.01 73.88 94.97"/><path style="fill:none;stroke:url(#T);stroke-linecap:round;stroke-width:.39px" d="m73.34 95.53-.54.55"/><path style="fill:none;stroke:url(#U);stroke-linecap:round;stroke-width:.39px" d="m114.81 47.35-.54.55"/><path style="fill:none;stroke:url(#V);stroke-dasharray:0 0 1.54 1.54;stroke-linecap:round;stroke-width:.39px" d="M113.21 49.01 68.85 94.97"/><path style="fill:none;stroke:url(#W);stroke-linecap:round;stroke-width:.39px" d="m68.32 95.53-.54.55"/><path style="fill:none;stroke:url(#X);stroke-linecap:round;stroke-width:.39px" d="m109.79 47.35-.54.55"/><path style="fill:none;stroke:url(#Y);stroke-dasharray:0 0 1.54 1.54;stroke-linecap:round;stroke-width:.39px" d="M108.18 49.01 63.83 94.97"/><path style="fill:none;stroke:url(#Z);stroke-linecap:round;stroke-width:.39px" d="m63.29 95.53-.54.55"/><path style="fill:none;stroke:url(#aa);stroke-linecap:round;stroke-width:.39px" d="m104.76 47.35-.54.55"/><path style="fill:none;stroke:url(#ab);stroke-dasharray:0 0 1.54 1.54;stroke-linecap:round;stroke-width:.39px" d="M103.15 49.01 58.8 94.97"/><path style="fill:none;stroke:url(#ac);stroke-linecap:round;stroke-width:.39px" d="m58.27 95.53-.54.55"/><path style="fill:none;stroke:url(#ad);stroke-linecap:round;stroke-width:.39px" d="m99.74 47.35-.54.55"/><path style="fill:none;stroke:url(#ae);stroke-dasharray:0 0 1.54 1.54;stroke-linecap:round;stroke-width:.39px" d="M98.13 49.01 53.77 94.97"/><path style="fill:none;stroke:url(#af);stroke-linecap:round;stroke-width:.39px" d="m53.24 95.53-.54.55"/><path style="fill:none;stroke:url(#ag);stroke-linecap:round;stroke-width:.39px" d="m94.71 47.35-.54.55"/><path style="fill:none;stroke:url(#ah);stroke-dasharray:0 0 1.54 1.54;stroke-linecap:round;stroke-width:.39px" d="M93.1 49.01 48.75 94.97"/><path style="fill:none;stroke:url(#ai);stroke-linecap:round;stroke-width:.39px" d="m48.21 95.53-.53.55"/></g><g style="clip-path:url(#aj)"><path style="fill:none;stroke:url(#ak);stroke-linecap:round;stroke-width:.4px" d="m135.33 92.98-.56.56"/><path style="fill:none;stroke:url(#al);stroke-dasharray:0 0 1.58 1.58;stroke-linecap:round;stroke-width:.4px" d="m133.66 94.66-46.09 46.42"/><path style="fill:none;stroke:url(#am);stroke-linecap:round;stroke-width:.4px" d="m87.02 141.64-.56.56"/><path style="fill:none;stroke:url(#an);stroke-linecap:round;stroke-width:.4px" d="m130.11 92.98-.56.56"/><path style="fill:none;stroke:url(#ao);stroke-dasharray:0 0 1.58 1.58;stroke-linecap:round;stroke-width:.4px" d="m128.44 94.66-46.09 46.42"/><path style="fill:none;stroke:url(#ap);stroke-linecap:round;stroke-width:.4px" d="m81.8 141.64-.56.56"/><path style="fill:none;stroke:url(#aq);stroke-linecap:round;stroke-width:.4px" d="m124.88 92.98-.56.56"/><path style="fill:none;stroke:url(#ar);stroke-dasharray:0 0 1.58 1.58;stroke-linecap:round;stroke-width:.4px" d="m123.21 94.66-46.08 46.42"/><path style="fill:none;stroke:url(#as);stroke-linecap:round;stroke-width:.4px" d="m76.58 141.64-.56.56"/><path style="fill:none;stroke:url(#at);stroke-linecap:round;stroke-width:.4px" d="m119.66 92.98-.56.56"/><path style="fill:none;stroke:url(#au);stroke-dasharray:0 0 1.58 1.58;stroke-linecap:round;stroke-width:.4px" d="m117.99 94.66-46.08 46.42"/><path style="fill:none;stroke:url(#av);stroke-linecap:round;stroke-width:.4px" d="m71.35 141.64-.56.56"/><path style="fill:none;stroke:url(#aw);stroke-linecap:round;stroke-width:.4px" d="m114.44 92.98-.56.56"/><path style="fill:none;stroke:url(#ax);stroke-dasharray:0 0 1.58 1.58;stroke-linecap:round;stroke-width:.4px" d="m112.77 94.66-46.08 46.42"/><path style="fill:none;stroke:url(#ay);stroke-linecap:round;stroke-width:.4px" d="m66.13 141.64-.56.56"/><path style="fill:none;stroke:url(#az);stroke-linecap:round;stroke-width:.4px" d="m109.22 92.98-.56.56"/><path style="fill:none;stroke:url(#aA);stroke-dasharray:0 0 1.58 1.58;stroke-linecap:round;stroke-width:.4px" d="m107.55 94.66-46.08 46.42"/><path style="fill:none;stroke:url(#aB);stroke-linecap:round;stroke-width:.4px" d="m60.91 141.64-.56.56"/><path style="fill:none;stroke:url(#aC);stroke-linecap:round;stroke-width:.4px" d="m104 92.98-.56.56"/><path style="fill:none;stroke:url(#aD);stroke-dasharray:0 0 1.58 1.58;stroke-linecap:round;stroke-width:.4px" d="m102.33 94.66-46.09 46.42"/><path style="fill:none;stroke:url(#aE);stroke-linecap:round;stroke-width:.4px" d="m55.69 141.64-.56.56"/><path style="fill:none;stroke:url(#aF);stroke-linecap:round;stroke-width:.4px" d="m98.78 92.98-.56.56"/><path style="fill:none;stroke:url(#aG);stroke-dasharray:0 0 1.58 1.58;stroke-linecap:round;stroke-width:.4px" d="m97.11 94.66-46.09 46.42"/><path style="fill:none;stroke:url(#aH);stroke-linecap:round;stroke-width:.4px" d="m50.47 141.64-.56.56"/><path style="fill:none;stroke:url(#aI);stroke-linecap:round;stroke-width:.4px" d="m177.52 92.98-.56.56"/><path style="fill:none;stroke:url(#aJ);stroke-dasharray:0 0 1.58 1.58;stroke-linecap:round;stroke-width:.4px" d="m175.85 94.66-46.08 46.42"/><path style="fill:none;stroke:url(#aK);stroke-linecap:round;stroke-width:.4px" d="m129.21 141.64-.56.56"/><path style="fill:none;stroke:url(#aL);stroke-linecap:round;stroke-width:.4px" d="m172.3 92.98-.56.56"/><path style="fill:none;stroke:url(#aM);stroke-dasharray:0 0 1.58 1.58;stroke-linecap:round;stroke-width:.4px" d="m170.63 94.66-46.08 46.42"/><path style="fill:none;stroke:url(#aN);stroke-linecap:round;stroke-width:.4px" d="m123.99 141.64-.56.56"/><path style="fill:none;stroke:url(#aO);stroke-linecap:round;stroke-width:.4px" d="m167.08 92.98-.56.56"/><path style="fill:none;stroke:url(#aP);stroke-dasharray:0 0 1.58 1.58;stroke-linecap:round;stroke-width:.4px" d="m165.41 94.66-46.08 46.42"/><path style="fill:none;stroke:url(#aQ);stroke-linecap:round;stroke-width:.4px" d="m118.77 141.64-.56.56"/><path style="fill:none;stroke:url(#aR);stroke-linecap:round;stroke-width:.4px" d="m161.86 92.98-.56.56"/><path style="fill:none;stroke:url(#aS);stroke-dasharray:0 0 1.58 1.58;stroke-linecap:round;stroke-width:.4px" d="m160.19 94.66-46.09 46.42"/><path style="fill:none;stroke:url(#aT);stroke-linecap:round;stroke-width:.4px" d="m113.55 141.64-.56.56"/><path style="fill:none;stroke:url(#aU);stroke-linecap:round;stroke-width:.4px" d="m156.64 92.98-.56.56"/><path style="fill:none;stroke:url(#aV);stroke-dasharray:0 0 1.58 1.58;stroke-linecap:round;stroke-width:.4px" d="m154.97 94.66-46.09 46.42"/><path style="fill:none;stroke:url(#aW);stroke-linecap:round;stroke-width:.4px" d="m108.33 141.64-.56.56"/><path style="fill:none;stroke:url(#aX);stroke-linecap:round;stroke-width:.4px" d="m151.41 92.98-.56.56"/><path style="fill:none;stroke:url(#aY);stroke-dasharray:0 0 1.58 1.58;stroke-linecap:round;stroke-width:.4px" d="m149.74 94.66-46.08 46.42"/><path style="fill:none;stroke:url(#aZ);stroke-linecap:round;stroke-width:.4px" d="m103.1 141.64-.55.56"/><path style="fill:none;stroke:url(#ba);stroke-linecap:round;stroke-width:.4px" d="m146.19 92.98-.56.56"/><path style="fill:none;stroke:url(#bb);stroke-dasharray:0 0 1.58 1.58;stroke-linecap:round;stroke-width:.4px" d="m144.52 94.66-46.08 46.42"/><path style="fill:none;stroke:url(#bc);stroke-linecap:round;stroke-width:.4px" d="m97.88 141.64-.56.56"/><path style="fill:none;stroke:url(#bd);stroke-linecap:round;stroke-width:.4px" d="m140.97 92.98-.56.56"/><path style="fill:none;stroke:url(#be);stroke-dasharray:0 0 1.58 1.58;stroke-linecap:round;stroke-width:.4px" d="m139.3 94.66-46.08 46.42"/><path style="fill:none;stroke:url(#bf);stroke-linecap:round;stroke-width:.4px" d="m92.66 141.64-.56.56"/></g><g style="clip-path:url(#bg)"><path style="fill:none;stroke:url(#bh);stroke-linecap:round;stroke-width:.4px" d="m135.33 1.37-.56.56"/><path style="fill:none;stroke:url(#bi);stroke-dasharray:0 0 1.57 1.57;stroke-linecap:round;stroke-width:.4px" d="M133.66 3.03 87.57 48.99"/><path style="fill:none;stroke:url(#bj);stroke-linecap:round;stroke-width:.4px" d="m87.01 49.55-.56.56"/><path style="fill:none;stroke:url(#bk);stroke-linecap:round;stroke-width:.4px" d="m130.11 1.37-.56.56"/><path style="fill:none;stroke:url(#bl);stroke-dasharray:0 0 1.57 1.57;stroke-linecap:round;stroke-width:.4px" d="M128.44 3.03 82.35 48.99"/><path style="fill:none;stroke:url(#bm);stroke-linecap:round;stroke-width:.4px" d="m81.79 49.55-.56.56"/><path style="fill:none;stroke:url(#bn);stroke-linecap:round;stroke-width:.4px" d="m124.88 1.37-.56.56"/><path style="fill:none;stroke:url(#bo);stroke-dasharray:0 0 1.57 1.57;stroke-linecap:round;stroke-width:.4px" d="M123.21 3.03 77.12 48.99"/><path style="fill:none;stroke:url(#bp);stroke-linecap:round;stroke-width:.4px" d="m76.57 49.55-.56.56"/><path style="fill:none;stroke:url(#bq);stroke-linecap:round;stroke-width:.4px" d="m119.66 1.37-.56.56"/><path style="fill:none;stroke:url(#br);stroke-dasharray:0 0 1.57 1.57;stroke-linecap:round;stroke-width:.4px" d="M117.99 3.03 71.9 48.99"/><path style="fill:none;stroke:url(#bs);stroke-linecap:round;stroke-width:.4px" d="m71.34 49.55-.55.56"/><path style="fill:none;stroke:url(#bt);stroke-linecap:round;stroke-width:.4px" d="m114.44 1.37-.56.56"/><path style="fill:none;stroke:url(#bu);stroke-dasharray:0 0 1.57 1.57;stroke-linecap:round;stroke-width:.4px" d="M112.77 3.03 66.68 48.99"/><path style="fill:none;stroke:url(#bv);stroke-linecap:round;stroke-width:.4px" d="m66.12 49.55-.56.56"/><path style="fill:none;stroke:url(#bw);stroke-linecap:round;stroke-width:.4px" d="m109.22 1.37-.56.56"/><path style="fill:none;stroke:url(#bx);stroke-dasharray:0 0 1.57 1.57;stroke-linecap:round;stroke-width:.4px" d="M107.55 3.03 61.46 48.99"/><path style="fill:none;stroke:url(#by);stroke-linecap:round;stroke-width:.4px" d="m60.9 49.55-.56.56"/><path style="fill:none;stroke:url(#bz);stroke-linecap:round;stroke-width:.4px" d="m103.99 1.37-.56.56"/><path style="fill:none;stroke:url(#bA);stroke-dasharray:0 0 1.57 1.57;stroke-linecap:round;stroke-width:.4px" d="M102.32 3.03 56.23 48.99"/><path style="fill:none;stroke:url(#bB);stroke-linecap:round;stroke-width:.4px" d="m55.68 49.55-.56.56"/><path style="fill:none;stroke:url(#bC);stroke-linecap:round;stroke-width:.4px" d="m98.77 1.37-.56.56"/><path style="fill:none;stroke:url(#bD);stroke-dasharray:0 0 1.57 1.57;stroke-linecap:round;stroke-width:.4px" d="M97.1 3.03 51.01 48.99"/><path style="fill:none;stroke:url(#bE);stroke-linecap:round;stroke-width:.4px" d="m50.46 49.55-.56.56"/><path style="fill:none;stroke:url(#bF);stroke-linecap:round;stroke-width:.4px" d="m177.53 1.37-.56.56"/><path style="fill:none;stroke:url(#bG);stroke-dasharray:0 0 1.57 1.57;stroke-linecap:round;stroke-width:.4px" d="m175.86 3.03-46.09 45.96"/><path style="fill:none;stroke:url(#bH);stroke-linecap:round;stroke-width:.4px" d="m129.21 49.55-.56.56"/><path style="fill:none;stroke:url(#bI);stroke-linecap:round;stroke-width:.4px" d="m172.31 1.37-.56.56"/><path style="fill:none;stroke:url(#bJ);stroke-dasharray:0 0 1.57 1.57;stroke-linecap:round;stroke-width:.4px" d="m170.64 3.03-46.09 45.96"/><path style="fill:none;stroke:url(#bK);stroke-linecap:round;stroke-width:.4px" d="m123.99 49.55-.56.56"/><path style="fill:none;stroke:url(#bL);stroke-linecap:round;stroke-width:.4px" d="m167.08 1.37-.56.56"/><path style="fill:none;stroke:url(#bM);stroke-dasharray:0 0 1.57 1.57;stroke-linecap:round;stroke-width:.4px" d="m165.41 3.03-46.09 45.96"/><path style="fill:none;stroke:url(#bN);stroke-linecap:round;stroke-width:.4px" d="m118.77 49.55-.56.56"/><path style="fill:none;stroke:url(#bO);stroke-linecap:round;stroke-width:.4px" d="m161.86 1.37-.56.56"/><path style="fill:none;stroke:url(#bP);stroke-dasharray:0 0 1.57 1.57;stroke-linecap:round;stroke-width:.4px" d="M160.19 3.03 114.1 48.99"/><path style="fill:none;stroke:url(#bQ);stroke-linecap:round;stroke-width:.4px" d="m113.55 49.55-.56.56"/><path style="fill:none;stroke:url(#bR);stroke-linecap:round;stroke-width:.4px" d="m156.64 1.37-.56.56"/><path style="fill:none;stroke:url(#bS);stroke-dasharray:0 0 1.57 1.57;stroke-linecap:round;stroke-width:.4px" d="m154.97 3.03-46.09 45.96"/><path style="fill:none;stroke:url(#bT);stroke-linecap:round;stroke-width:.4px" d="m108.32 49.55-.56.56"/><path style="fill:none;stroke:url(#bU);stroke-linecap:round;stroke-width:.4px" d="m151.42 1.37-.56.56"/><path style="fill:none;stroke:url(#bV);stroke-dasharray:0 0 1.57 1.57;stroke-linecap:round;stroke-width:.4px" d="m149.75 3.03-46.09 45.96"/><path style="fill:none;stroke:url(#bW);stroke-linecap:round;stroke-width:.4px" d="m103.1 49.55-.56.56"/><path style="fill:none;stroke:url(#bX);stroke-linecap:round;stroke-width:.4px" d="m146.19 1.37-.56.56"/><path style="fill:none;stroke:url(#bY);stroke-dasharray:0 0 1.57 1.57;stroke-linecap:round;stroke-width:.4px" d="M144.52 3.03 98.43 48.99"/><path style="fill:none;stroke:url(#bZ);stroke-linecap:round;stroke-width:.4px" d="m97.88 49.55-.56.56"/><path style="fill:none;stroke:url(#ca);stroke-linecap:round;stroke-width:.4px" d="m140.97 1.37-.56.56"/><path style="fill:none;stroke:url(#cb);stroke-dasharray:0 0 1.57 1.57;stroke-linecap:round;stroke-width:.4px" d="M139.3 3.03 93.21 48.99"/><path style="fill:none;stroke:url(#cc);stroke-linecap:round;stroke-width:.4px" d="m92.66 49.55-.56.56"/></g></svg>