<?xml version="1.0" encoding="UTF-8"?>
<svg id="Layer_1" data-name="Layer 1" xmlns="http://www.w3.org/2000/svg" xmlns:xlink="http://www.w3.org/1999/xlink" viewBox="0 0 60 60">
  <defs>
    <linearGradient id="linear-gradient" x1="11.33" y1="1639.01" x2="4.03" y2="1623.74" gradientTransform="translate(24.94 1665.77) scale(1 -1)" gradientUnits="userSpaceOnUse">
      <stop offset="0" stop-color="#ff1639"/>
      <stop offset="1" stop-color="#ff1639" stop-opacity="0"/>
    </linearGradient>
  </defs>
  <path d="m36.08,10.49c.34.42.51.98.85,2.1l7.47,24.55c-2.81-1.46-5.82-2.48-8.94-3.03l-4.87-16.44c-.1-.34-.45-.53-.79-.43-.07.02-.14.06-.2.1-.11.08-.19.2-.23.33l-4.81,16.43c-3.13.55-6.16,1.57-8.98,3.03l7.51-24.55c.34-1.12.51-1.68.85-2.1.3-.37.68-.65,1.12-.83.5-.2,1.08-.2,2.26-.2h5.36c1.17,0,1.76,0,2.26.2.44.18.82.46,1.12.83" style="fill: #e5e4e6; fill-rule: evenodd; stroke-width: 0px;"/>
  <path d="m36.97,38.32c-1.23,1.05-3.69,1.77-6.52,1.77-3.48,0-6.39-1.08-7.16-2.54-.28.83-.34,1.79-.34,2.4,0,0-.18,3,1.9,5.08,0-1.08.88-1.96,1.96-1.96,1.85,0,1.85,1.62,1.85,2.93v.12c0,1.99,1.22,3.7,2.95,4.42-.27-.55-.4-1.15-.4-1.76,0-1.9,1.12-2.61,2.41-3.43,1.03-.65,2.18-1.38,2.97-2.84.43-.79.65-1.66.65-2.56,0-.57-.09-1.12-.25-1.63" style="fill: #ff5d01; fill-rule: evenodd; stroke-width: 0px;"/>
  <path d="m36.97,38.32c-1.23,1.05-3.69,1.77-6.52,1.77-3.48,0-6.39-1.08-7.16-2.54-.28.83-.34,1.79-.34,2.4,0,0-.18,3,1.9,5.08,0-1.08.88-1.96,1.96-1.96,1.85,0,1.85,1.62,1.85,2.93v.12c0,1.99,1.22,3.7,2.95,4.42-.27-.55-.4-1.15-.4-1.76,0-1.9,1.12-2.61,2.41-3.43,1.03-.65,2.18-1.38,2.97-2.84.43-.79.65-1.66.65-2.56,0-.57-.09-1.12-.25-1.63" style="fill: url(#linear-gradient); fill-rule: evenodd; stroke-width: 0px;"/>
</svg>