<?xml version="1.0" encoding="UTF-8"?>
<svg id="Layer_1" data-name="Layer 1" xmlns="http://www.w3.org/2000/svg" viewBox="0 0 60 60">
  <path d="m12.76,34.37v-8.69c0-3.46,2.22-5.33,5.58-5.33,3.31-.05,5.38,2.12,5.27,5.79h-3.83c.1-1.4-.52-2.43-1.55-2.38-1.29,0-1.65.88-1.65,2.53v7.55c0,1.6.52,2.38,1.65,2.43,1.19,0,1.65-1.19,1.55-2.53h3.83c.21,3.77-2.17,6-5.53,5.95-3.26,0-5.33-1.81-5.33-5.33m12.25-.62h3.57c.05,1.65.57,2.69,1.71,2.69s1.55-.67,1.55-2.22c0-1.29-.57-2.02-1.96-2.69l-1.34-.62c-2.38-1.14-3.36-2.53-3.36-5.33,0-3.1,1.96-5.27,5.17-5.27s4.91,2.22,4.96,5.84h-3.46c0-1.5-.31-2.53-1.45-2.53-1.03,0-1.55.52-1.55,1.81s.47,1.81,1.71,2.33l1.24.57c2.64,1.24,3.77,2.84,3.77,5.84,0,3.57-2.02,5.53-5.33,5.53s-5.17-2.27-5.22-5.95m11.69,0h3.62c0,1.65.57,2.69,1.65,2.69s1.55-.67,1.55-2.22c0-1.29-.52-2.02-1.96-2.69l-1.34-.62c-2.38-1.14-3.31-2.53-3.31-5.33,0-3.1,1.91-5.27,5.17-5.27s4.86,2.22,4.96,5.84h-3.46c-.05-1.5-.36-2.53-1.5-2.53-1.03,0-1.5.52-1.5,1.81s.41,1.81,1.65,2.33l1.29.57c2.59,1.24,3.72,2.84,3.72,5.84,0,3.57-2.02,5.53-5.33,5.53s-5.17-2.27-5.22-5.95" style="fill: #663693; stroke-width: 0px;"/>
</svg>