<?xml version="1.0" encoding="UTF-8"?>
<svg id="Layer_1" data-name="Layer 1" xmlns="http://www.w3.org/2000/svg" viewBox="0 0 60 60">
  <path d="m50.2,41.09c-1.22.46-2.59-.06-3.19-1.21-1.83-2.74-3.85-5.36-5.79-8.03l-.84-1.12c-2.31,3.1-4.63,6.07-6.74,9.16-.57,1.1-1.87,1.61-3.03,1.19l8.68-11.64-8.07-10.52c1.2-.43,2.54.04,3.2,1.12,1.88,2.74,3.95,5.36,6.02,8.13,2.08-2.75,4.13-5.38,6.05-8.1.57-1.08,1.87-1.57,3.01-1.12l-3.13,4.15c-1.4,1.85-2.78,3.72-4.24,5.52-.46.41-.5,1.12-.09,1.59.03.03.06.06.09.09,2.68,3.56,5.34,7.13,8.08,10.79M9.8,29.29c.24-1.12.38-2.35.71-3.49,1.94-6.91,9.86-9.78,15.31-5.5,3.19,2.5,3.99,6.05,3.83,10.05H11.68c-.29,7.14,4.86,11.45,11.45,9.25,2.17-.78,3.81-2.6,4.35-4.84.35-1.12.91-1.31,1.98-.99-.36,2.77-1.96,5.22-4.36,6.66-4.01,2.19-8.97,1.56-12.3-1.57-1.6-1.8-2.57-4.08-2.76-6.49,0-.38-.15-.76-.22-1.12,0-.65-.01-1.3-.01-1.95m1.9-.48h16.25c-.1-5.18-3.37-8.85-7.73-8.88-4.85-.07-8.32,3.53-8.53,8.86v.02Z" style="fill: #999; stroke-width: 0px;"/>
</svg>