<?xml version="1.0" encoding="UTF-8"?>
<svg id="Layer_1" data-name="Layer 1" xmlns="http://www.w3.org/2000/svg" viewBox="0 0 60 60">
  <path d="m12.89,37.68l3.97-2.4c.77,1.36,1.46,2.51,3.14,2.51s2.61-.63,2.61-3.07v-16.59h4.88v16.65c0,5.05-2.96,7.35-7.28,7.35-3.9,0-6.17-2.02-7.32-4.46m17.25-.52l3.97-2.3c1.05,1.71,2.4,2.96,4.81,2.96,2.02,0,3.31-1.01,3.31-2.4,0-1.67-1.32-2.26-3.55-3.24l-1.22-.52c-3.52-1.5-5.85-3.38-5.85-7.35,0-3.66,2.79-6.45,7.14-6.45,3.1,0,5.33,1.08,6.93,3.9l-3.8,2.44c-.84-1.5-1.74-2.09-3.14-2.09s-2.33.91-2.33,2.09c0,1.46.91,2.06,3,2.96l1.22.52c4.15,1.78,6.48,3.59,6.48,7.67,0,4.39-3.45,6.79-8.08,6.79s-7.46-2.16-8.88-4.98" style="fill: #edcb00; stroke-width: 0px;"/>
</svg>