<?xml version="1.0" encoding="UTF-8"?>
<svg id="Layer_1" data-name="Layer 1" xmlns="http://www.w3.org/2000/svg" viewBox="0 0 60 60">
  <path d="m47.74,19.97s.02.1.02.15v7.92c0,.1-.03.2-.08.29-.05.09-.12.16-.21.21l-6.55,3.83v7.58c0,.21-.11.4-.28.5l-13.68,7.98s-.07.03-.1.04c-.01,0-.02.01-.04.02-.1.03-.2.03-.29,0-.02,0-.03-.01-.04-.02-.03-.01-.06-.02-.09-.04l-13.68-7.98c-.09-.05-.16-.12-.21-.21-.05-.09-.08-.19-.08-.29v-23.75c0-.05,0-.1.02-.15,0-.02.01-.03.02-.05.01-.03.02-.06.04-.09.01-.02.03-.03.04-.05.02-.02.03-.05.05-.07.02-.02.04-.03.06-.04.02-.02.04-.04.06-.05h0l6.84-3.99c.18-.1.39-.1.57,0l6.84,3.99h0s.04.03.06.05c.02.01.04.03.06.04.02.02.03.04.05.07.01.02.03.03.04.05.02.03.03.06.04.09,0,.02.02.03.02.05.01.05.02.1.02.15v14.83l5.7-3.33v-7.58c0-.05,0-.1.02-.15,0-.02.01-.03.02-.05.01-.03.02-.06.04-.09.01-.02.03-.03.04-.05.02-.02.03-.05.05-.07.02-.02.04-.03.06-.04.02-.02.04-.04.06-.05h0l6.84-3.99c.18-.1.39-.1.57,0l6.84,3.99s.04.03.06.05c.02.01.04.03.05.04.02.02.03.04.05.07.01.02.03.03.04.05.02.03.03.06.04.09,0,.02.02.03.02.05m-1.12,7.73v-6.58l-2.39,1.4-3.31,1.93v6.58l5.7-3.33h0Zm-6.84,11.91v-6.59l-3.25,1.88-9.29,5.37v6.65l12.54-7.32ZM13.57,17.19v22.42l12.54,7.32v-6.65l-6.55-3.76h0s0,0,0,0c-.02-.01-.04-.03-.06-.05-.02-.01-.04-.03-.05-.04h0s-.03-.04-.05-.06c-.01-.02-.03-.04-.04-.06h0s-.02-.05-.03-.07c0-.02-.02-.04-.03-.07h0s0-.06-.01-.09c0-.02,0-.04,0-.06v-15.5l-3.3-1.93-2.39-1.4h0Zm6.27-4.32l-5.7,3.33,5.7,3.33,5.7-3.33-5.7-3.32h0Zm2.96,20.75l3.31-1.93v-14.5l-2.39,1.4-3.31,1.93v14.5l2.39-1.4Zm17.55-16.83l-5.7,3.33,5.7,3.33,5.7-3.33-5.7-3.32Zm-.57,7.65l-3.31-1.93-2.39-1.4v6.58l3.3,1.93,2.39,1.4v-6.58Zm-13.11,14.84l8.36-4.84,4.18-2.42-5.69-3.32-6.55,3.83-5.97,3.49,5.69,3.26Z" style="fill: #ec1c24; fill-rule: evenodd; stroke-width: 0px;"/>
</svg>