<?xml version="1.0" encoding="UTF-8"?>
<svg id="Layer_1" data-name="Layer 1" xmlns="http://www.w3.org/2000/svg" viewBox="0 0 60 60">
  <path d="m28.66,8.83c-.09,0-.37.04-.62.06-5.83.53-11.3,3.67-14.76,8.51-1.93,2.69-3.16,5.74-3.62,8.97-.16,1.13-.18,1.46-.18,2.99s.02,1.86.18,2.99c1.12,7.71,6.6,14.19,14.05,16.59,1.33.43,2.74.72,4.34.9.62.07,3.31.07,3.93,0,2.76-.31,5.09-.99,7.4-2.16.35-.18.42-.23.37-.27-.03-.02-1.54-2.04-3.34-4.48l-3.28-4.44-4.12-6.09c-2.26-3.35-4.13-6.09-4.14-6.09-.02,0-.03,2.7-.04,6.01-.01,5.78-.02,6.02-.09,6.15-.1.2-.18.28-.35.37-.13.06-.24.08-.85.08h-.69l-.18-.12c-.11-.07-.21-.17-.27-.29l-.08-.18v-8.05s.02-8.05.02-8.05l.12-.16c.06-.08.2-.19.3-.24.16-.08.23-.09.92-.09.82,0,.96.03,1.17.26.06.06,2.29,3.42,4.95,7.46,2.7,4.09,5.4,8.18,8.1,12.27l3.25,4.93.16-.11c1.46-.95,3-2.3,4.22-3.7,2.6-2.98,4.27-6.62,4.83-10.5.16-1.13.18-1.46.18-2.99s-.02-1.86-.18-2.99c-1.12-7.71-6.6-14.19-14.05-16.59-1.31-.43-2.71-.72-4.28-.9-.39-.04-3.04-.08-3.37-.05m8.41,12.42c.19.1.35.28.41.47.03.1.04,2.34.03,7.37v7.22s-1.28-1.95-1.28-1.95l-1.28-1.95v-5.25c0-3.39.02-5.3.04-5.39.06-.22.2-.4.4-.51.16-.08.22-.09.86-.09.59,0,.7,0,.83.08" style="stroke-width: 0px;"/>
</svg>