<?xml version="1.0" encoding="UTF-8"?>
<svg id="Layer_1" data-name="Layer 1" xmlns="http://www.w3.org/2000/svg" viewBox="0 0 60 60">
  <path d="m28.36,10.4c.99-.57,2.29-.57,3.28,0,4.99,2.82,9.99,5.64,14.98,8.46.94.53,1.57,1.57,1.56,2.66v16.97c0,1.13-.68,2.2-1.67,2.71-4.98,2.81-9.95,5.61-14.93,8.42-1.01.58-2.33.53-3.32-.09-1.49-.86-2.99-1.73-4.48-2.59-.3-.18-.65-.33-.86-.62.19-.26.53-.29.81-.4.62-.2,1.19-.52,1.77-.82.14-.1.32-.06.46.03,1.28.73,2.54,1.48,3.82,2.21.27.16.55-.05.78-.18,4.88-2.76,9.77-5.51,14.66-8.27.18-.09.28-.28.27-.48,0-5.6,0-11.2,0-16.8.02-.22-.11-.43-.31-.52-4.96-2.79-9.92-5.59-14.87-8.38-.18-.12-.41-.12-.58,0-4.96,2.79-9.91,5.59-14.87,8.39-.2.09-.34.3-.31.52,0,5.6,0,11.2,0,16.8-.02.2.09.39.27.47,1.32.75,2.65,1.5,3.97,2.24.75.4,1.66.64,2.48.33.73-.26,1.23-1,1.22-1.77,0-5.57,0-11.13,0-16.7-.02-.25.22-.45.46-.43.64,0,1.27,0,1.91,0,.27,0,.45.26.42.51,0,5.6,0,11.2,0,16.81,0,1.49-.61,3.12-1.99,3.85-1.7.88-3.8.69-5.48-.15-1.45-.73-2.84-1.58-4.27-2.36-.99-.51-1.68-1.59-1.67-2.71v-16.97c-.01-1.1.64-2.17,1.61-2.69,4.98-2.81,9.95-5.62,14.92-8.43" style="fill: #81cd39; stroke-width: 0px;"/>
  <path d="m32.7,22.16c2.17-.14,4.49-.08,6.45.99,1.51.82,2.35,2.54,2.38,4.22-.04.23-.28.35-.5.34-.63,0-1.26,0-1.89,0-.27.01-.42-.24-.46-.47-.18-.8-.62-1.6-1.38-1.99-1.16-.58-2.51-.55-3.77-.54-.92.05-1.92.13-2.7.67-.6.41-.78,1.24-.57,1.91.2.48.76.64,1.21.78,2.62.68,5.39.62,7.95,1.52,1.06.37,2.1,1.08,2.46,2.19.48,1.49.27,3.27-.79,4.47-.86.98-2.11,1.52-3.36,1.81-1.66.37-3.39.38-5.07.22-1.59-.18-3.24-.6-4.46-1.68-1.05-.91-1.56-2.33-1.51-3.69.01-.23.24-.39.46-.37.63,0,1.27,0,1.9,0,.25-.02.44.2.45.44.12.77.4,1.57,1.07,2.02,1.29.83,2.91.77,4.38.8,1.22-.05,2.59-.07,3.59-.88.53-.46.68-1.23.54-1.9-.15-.56-.74-.82-1.24-.99-2.58-.82-5.38-.52-7.94-1.44-1.04-.37-2.04-1.06-2.44-2.13-.56-1.51-.3-3.38.87-4.53,1.14-1.15,2.79-1.59,4.36-1.75" style="fill: #81cd39; stroke-width: 0px;"/>
</svg>