<?xml version="1.0" encoding="UTF-8"?>
<svg id="Layer_1" data-name="Layer 1" xmlns="http://www.w3.org/2000/svg" viewBox="0 0 60 60">
  <path d="m30,33.8c2.12,0,3.83-1.72,3.83-3.83s-1.72-3.83-3.83-3.83-3.83,1.72-3.83,3.83,1.72,3.83,3.83,3.83" style="fill: #4cc7ed; stroke-width: 0px;"/>
  <path d="m30,22.17c5.14,0,9.92.74,13.53,1.98,4.34,1.49,7.01,3.76,7.01,5.81s-2.83,4.54-7.49,6.09c-3.52,1.17-8.16,1.78-13.05,1.78s-9.75-.57-13.31-1.79c-4.51-1.54-7.23-3.98-7.23-6.08s2.55-4.28,6.83-5.77c3.62-1.26,8.51-2.01,13.71-2.01h0Z" style="fill: none; stroke: #4cc7ed; stroke-width: 1.83px;"/>
  <path d="m23.22,26.09c2.57-4.46,5.6-8.23,8.47-10.73,3.46-3.01,6.76-4.19,8.54-3.17,1.85,1.07,2.52,4.72,1.53,9.53-.75,3.64-2.54,7.96-4.98,12.19-2.5,4.34-5.36,8.16-8.2,10.64-3.59,3.14-7.06,4.27-8.87,3.22-1.76-1.02-2.44-4.35-1.59-8.8.71-3.76,2.51-8.38,5.1-12.88h0Z" style="fill: none; stroke: #4cc7ed; stroke-width: 1.83px;"/>
  <path d="m23.23,33.92c-2.58-4.45-4.33-8.96-5.06-12.7-.88-4.51-.26-7.95,1.52-8.98,1.85-1.07,5.35.17,9.02,3.43,2.78,2.47,5.63,6.17,8.07,10.4,2.51,4.33,4.39,8.72,5.12,12.42.93,4.67.18,8.25-1.64,9.3-1.76,1.02-4.98-.06-8.42-3.02-2.9-2.5-6.01-6.36-8.61-10.85Z" style="fill: none; stroke: #4cc7ed; stroke-width: 1.83px;"/>
</svg>